%TF.GenerationSoftware,KiCad,Pcbnew,8.0.1*%
%TF.CreationDate,2025-01-14T19:30:57+01:00*%
%TF.ProjectId,plant caretaker,706c616e-7420-4636-9172-6574616b6572,rev?*%
%TF.SameCoordinates,Original*%
%TF.FileFunction,Soldermask,Bot*%
%TF.FilePolarity,Negative*%
%FSLAX46Y46*%
G04 Gerber Fmt 4.6, Leading zero omitted, Abs format (unit mm)*
G04 Created by KiCad (PCBNEW 8.0.1) date 2025-01-14 19:30:57*
%MOMM*%
%LPD*%
G01*
G04 APERTURE LIST*
G04 Aperture macros list*
%AMRoundRect*
0 Rectangle with rounded corners*
0 $1 Rounding radius*
0 $2 $3 $4 $5 $6 $7 $8 $9 X,Y pos of 4 corners*
0 Add a 4 corners polygon primitive as box body*
4,1,4,$2,$3,$4,$5,$6,$7,$8,$9,$2,$3,0*
0 Add four circle primitives for the rounded corners*
1,1,$1+$1,$2,$3*
1,1,$1+$1,$4,$5*
1,1,$1+$1,$6,$7*
1,1,$1+$1,$8,$9*
0 Add four rect primitives between the rounded corners*
20,1,$1+$1,$2,$3,$4,$5,0*
20,1,$1+$1,$4,$5,$6,$7,0*
20,1,$1+$1,$6,$7,$8,$9,0*
20,1,$1+$1,$8,$9,$2,$3,0*%
G04 Aperture macros list end*
%ADD10C,0.120000*%
%ADD11C,1.800000*%
%ADD12C,1.600000*%
%ADD13RoundRect,0.200000X0.200000X0.275000X-0.200000X0.275000X-0.200000X-0.275000X0.200000X-0.275000X0*%
%ADD14RoundRect,0.200000X-0.200000X-0.275000X0.200000X-0.275000X0.200000X0.275000X-0.200000X0.275000X0*%
%ADD15RoundRect,0.102000X-0.395131X0.179605X0.179605X-0.395131X0.395131X-0.179605X-0.179605X0.395131X0*%
%ADD16RoundRect,0.102000X-0.395131X-0.179605X-0.179605X-0.395131X0.395131X0.179605X0.179605X0.395131X0*%
%ADD17RoundRect,0.102000X-2.298946X0.000000X0.000000X-2.298946X2.298946X0.000000X0.000000X2.298946X0*%
%ADD18RoundRect,0.225000X-0.225000X-0.250000X0.225000X-0.250000X0.225000X0.250000X-0.225000X0.250000X0*%
%ADD19RoundRect,0.225000X0.225000X0.250000X-0.225000X0.250000X-0.225000X-0.250000X0.225000X-0.250000X0*%
%ADD20RoundRect,0.250000X2.050000X0.300000X-2.050000X0.300000X-2.050000X-0.300000X2.050000X-0.300000X0*%
%ADD21RoundRect,0.250002X4.449998X5.149998X-4.449998X5.149998X-4.449998X-5.149998X4.449998X-5.149998X0*%
G04 APERTURE END LIST*
D10*
%TO.C,J5*%
X153925000Y-113950000D02*
G75*
G02*
X152125000Y-113950000I-900000J0D01*
G01*
X152125000Y-113950000D02*
G75*
G02*
X153925000Y-113950000I900000J0D01*
G01*
X153825000Y-118450000D02*
G75*
G02*
X152225000Y-118450000I-800000J0D01*
G01*
X152225000Y-118450000D02*
G75*
G02*
X153825000Y-118450000I800000J0D01*
G01*
%TD*%
D11*
%TO.C,J5*%
X153025000Y-113950000D03*
D12*
X153025000Y-118450000D03*
%TD*%
D13*
%TO.C,R9*%
X125075000Y-84125000D03*
X123425000Y-84125000D03*
%TD*%
D14*
%TO.C,R6*%
X117925000Y-89375000D03*
X119575000Y-89375000D03*
%TD*%
D15*
%TO.C,U1*%
X131021449Y-86872106D03*
X131380659Y-86512895D03*
X131721909Y-86171646D03*
X132081119Y-85812435D03*
X132440329Y-85453225D03*
X132799540Y-85094015D03*
X133140789Y-84752765D03*
X133500000Y-84393555D03*
D16*
X134505788Y-84393555D03*
X134864999Y-84752765D03*
X135206248Y-85094015D03*
X135565459Y-85453225D03*
X135924669Y-85812435D03*
X136283879Y-86171646D03*
X136625129Y-86512895D03*
X136984339Y-86872106D03*
D15*
X136984339Y-87877894D03*
X136625129Y-88237105D03*
X136283879Y-88578354D03*
X135924669Y-88937565D03*
X135565459Y-89296775D03*
X135206248Y-89655985D03*
X134864999Y-89997235D03*
X134505788Y-90356445D03*
D16*
X133500000Y-90356445D03*
X133140789Y-89997235D03*
X132799540Y-89655985D03*
X132440329Y-89296775D03*
X132081119Y-88937565D03*
X131721909Y-88578354D03*
X131380659Y-88237105D03*
X131021449Y-87877894D03*
D17*
X134002894Y-87375000D03*
%TD*%
D18*
%TO.C,C23*%
X123325000Y-91125000D03*
X124875000Y-91125000D03*
%TD*%
D19*
%TO.C,C4*%
X120775000Y-84625000D03*
X119225000Y-84625000D03*
%TD*%
D13*
%TO.C,R12*%
X132527894Y-80925000D03*
X130877894Y-80925000D03*
%TD*%
D18*
%TO.C,C10*%
X117975000Y-87625000D03*
X119525000Y-87625000D03*
%TD*%
D20*
%TO.C,U4*%
X160400000Y-99975000D03*
X160400000Y-101675000D03*
X160400000Y-103375000D03*
D21*
X151250000Y-103375000D03*
D20*
X160400000Y-105075000D03*
X160400000Y-106775000D03*
%TD*%
D18*
%TO.C,C24*%
X123975000Y-89375000D03*
X125525000Y-89375000D03*
%TD*%
M02*
