M48
; DRILL file {KiCad 8.0.1} date 2025-01-14T19:26:38+0100
; FORMAT={-:-/ absolute / metric / decimal}
; #@! TF.CreationDate,2025-01-14T19:26:38+01:00
; #@! TF.GenerationSoftware,Kicad,Pcbnew,8.0.1
; #@! TF.FileFunction,Plated,1,2,PTH
FMAT,2
METRIC
; #@! TA.AperFunction,Plated,PTH,ViaDrill
T1C0.300
; #@! TA.AperFunction,Plated,PTH,ViaDrill
T2C0.400
%
G90
G05
T1
X115.75Y-86.875
X115.9Y-120.325
X117.786Y-83.125
X118.75Y-92.125
X120.0Y-82.125
X120.5Y-97.25
X121.0Y-86.375
X126.25Y-92.625
X127.25Y-97.125
X129.3Y-81.325
X131.5Y-91.725
X132.5Y-93.125
X134.55Y-73.675
X135.75Y-94.096
X135.75Y-102.125
X136.25Y-112.125
X136.5Y-83.75
X136.75Y-100.635
X136.875Y-94.449
X136.9Y-117.925
X137.0Y-105.125
X137.5Y-78.75
X137.5Y-89.625
X137.7Y-107.525
X137.7Y-111.125
X137.9Y-85.6
X138.0Y-104.375
X138.1Y-83.525
X138.1Y-97.625
X138.25Y-75.375
X138.25Y-92.625
X138.5Y-90.525
X139.0Y-80.24
X139.25Y-109.375
X139.5Y-78.24
X139.75Y-95.625
X140.25Y-106.375
X140.5Y-89.25
X144.5Y-106.75
X145.75Y-92.625
X146.5Y-84.99
X148.5Y-80.74
X149.25Y-75.985
X149.75Y-79.0
X151.5Y-80.75
X154.385Y-76.625
X155.0Y-80.75
X157.25Y-73.25
X162.5Y-78.6
T2
X155.0Y-95.5
X160.75Y-116.875
X164.5Y-107.125
X165.25Y-100.75
X165.25Y-103.625
X166.25Y-107.75
M30
