%TF.GenerationSoftware,KiCad,Pcbnew,8.0.1*%
%TF.CreationDate,2025-01-14T19:30:57+01:00*%
%TF.ProjectId,plant caretaker,706c616e-7420-4636-9172-6574616b6572,rev?*%
%TF.SameCoordinates,Original*%
%TF.FileFunction,Legend,Top*%
%TF.FilePolarity,Positive*%
%FSLAX46Y46*%
G04 Gerber Fmt 4.6, Leading zero omitted, Abs format (unit mm)*
G04 Created by KiCad (PCBNEW 8.0.1) date 2025-01-14 19:30:57*
%MOMM*%
%LPD*%
G01*
G04 APERTURE LIST*
%ADD10C,0.100000*%
%ADD11C,0.150000*%
%ADD12C,0.120000*%
%ADD13C,0.127000*%
%ADD14C,0.200000*%
G04 APERTURE END LIST*
D10*
X144514285Y-86131295D02*
X144552381Y-86093200D01*
X144552381Y-86093200D02*
X144666666Y-86055104D01*
X144666666Y-86055104D02*
X144742857Y-86055104D01*
X144742857Y-86055104D02*
X144857143Y-86093200D01*
X144857143Y-86093200D02*
X144933333Y-86169390D01*
X144933333Y-86169390D02*
X144971428Y-86245580D01*
X144971428Y-86245580D02*
X145009524Y-86397961D01*
X145009524Y-86397961D02*
X145009524Y-86512247D01*
X145009524Y-86512247D02*
X144971428Y-86664628D01*
X144971428Y-86664628D02*
X144933333Y-86740819D01*
X144933333Y-86740819D02*
X144857143Y-86817009D01*
X144857143Y-86817009D02*
X144742857Y-86855104D01*
X144742857Y-86855104D02*
X144666666Y-86855104D01*
X144666666Y-86855104D02*
X144552381Y-86817009D01*
X144552381Y-86817009D02*
X144514285Y-86778914D01*
X143752381Y-86055104D02*
X144209524Y-86055104D01*
X143980952Y-86055104D02*
X143980952Y-86855104D01*
X143980952Y-86855104D02*
X144057143Y-86740819D01*
X144057143Y-86740819D02*
X144133333Y-86664628D01*
X144133333Y-86664628D02*
X144209524Y-86626533D01*
X143447619Y-86778914D02*
X143409523Y-86817009D01*
X143409523Y-86817009D02*
X143333333Y-86855104D01*
X143333333Y-86855104D02*
X143142857Y-86855104D01*
X143142857Y-86855104D02*
X143066666Y-86817009D01*
X143066666Y-86817009D02*
X143028571Y-86778914D01*
X143028571Y-86778914D02*
X142990476Y-86702723D01*
X142990476Y-86702723D02*
X142990476Y-86626533D01*
X142990476Y-86626533D02*
X143028571Y-86512247D01*
X143028571Y-86512247D02*
X143485714Y-86055104D01*
X143485714Y-86055104D02*
X142990476Y-86055104D01*
X160909524Y-107239895D02*
X160909524Y-106439895D01*
X160909524Y-106439895D02*
X161100000Y-106439895D01*
X161100000Y-106439895D02*
X161214286Y-106477990D01*
X161214286Y-106477990D02*
X161290476Y-106554180D01*
X161290476Y-106554180D02*
X161328571Y-106630371D01*
X161328571Y-106630371D02*
X161366667Y-106782752D01*
X161366667Y-106782752D02*
X161366667Y-106897038D01*
X161366667Y-106897038D02*
X161328571Y-107049419D01*
X161328571Y-107049419D02*
X161290476Y-107125609D01*
X161290476Y-107125609D02*
X161214286Y-107201800D01*
X161214286Y-107201800D02*
X161100000Y-107239895D01*
X161100000Y-107239895D02*
X160909524Y-107239895D01*
X162128571Y-107239895D02*
X161671428Y-107239895D01*
X161900000Y-107239895D02*
X161900000Y-106439895D01*
X161900000Y-106439895D02*
X161823809Y-106554180D01*
X161823809Y-106554180D02*
X161747619Y-106630371D01*
X161747619Y-106630371D02*
X161671428Y-106668466D01*
X139283333Y-79231390D02*
X139616666Y-79231390D01*
X139616666Y-78707580D02*
X139616666Y-79707580D01*
X139616666Y-79707580D02*
X139140476Y-79707580D01*
X138426190Y-79231390D02*
X138283333Y-79183771D01*
X138283333Y-79183771D02*
X138235714Y-79136152D01*
X138235714Y-79136152D02*
X138188095Y-79040914D01*
X138188095Y-79040914D02*
X138188095Y-78898057D01*
X138188095Y-78898057D02*
X138235714Y-78802819D01*
X138235714Y-78802819D02*
X138283333Y-78755200D01*
X138283333Y-78755200D02*
X138378571Y-78707580D01*
X138378571Y-78707580D02*
X138759523Y-78707580D01*
X138759523Y-78707580D02*
X138759523Y-79707580D01*
X138759523Y-79707580D02*
X138426190Y-79707580D01*
X138426190Y-79707580D02*
X138330952Y-79659961D01*
X138330952Y-79659961D02*
X138283333Y-79612342D01*
X138283333Y-79612342D02*
X138235714Y-79517104D01*
X138235714Y-79517104D02*
X138235714Y-79421866D01*
X138235714Y-79421866D02*
X138283333Y-79326628D01*
X138283333Y-79326628D02*
X138330952Y-79279009D01*
X138330952Y-79279009D02*
X138426190Y-79231390D01*
X138426190Y-79231390D02*
X138759523Y-79231390D01*
X137283333Y-79707580D02*
X137759523Y-79707580D01*
X137759523Y-79707580D02*
X137807142Y-79231390D01*
X137807142Y-79231390D02*
X137759523Y-79279009D01*
X137759523Y-79279009D02*
X137664285Y-79326628D01*
X137664285Y-79326628D02*
X137426190Y-79326628D01*
X137426190Y-79326628D02*
X137330952Y-79279009D01*
X137330952Y-79279009D02*
X137283333Y-79231390D01*
X137283333Y-79231390D02*
X137235714Y-79136152D01*
X137235714Y-79136152D02*
X137235714Y-78898057D01*
X137235714Y-78898057D02*
X137283333Y-78802819D01*
X137283333Y-78802819D02*
X137330952Y-78755200D01*
X137330952Y-78755200D02*
X137426190Y-78707580D01*
X137426190Y-78707580D02*
X137664285Y-78707580D01*
X137664285Y-78707580D02*
X137759523Y-78755200D01*
X137759523Y-78755200D02*
X137807142Y-78802819D01*
X117616667Y-93289895D02*
X117350000Y-92908942D01*
X117159524Y-93289895D02*
X117159524Y-92489895D01*
X117159524Y-92489895D02*
X117464286Y-92489895D01*
X117464286Y-92489895D02*
X117540476Y-92527990D01*
X117540476Y-92527990D02*
X117578571Y-92566085D01*
X117578571Y-92566085D02*
X117616667Y-92642276D01*
X117616667Y-92642276D02*
X117616667Y-92756561D01*
X117616667Y-92756561D02*
X117578571Y-92832752D01*
X117578571Y-92832752D02*
X117540476Y-92870847D01*
X117540476Y-92870847D02*
X117464286Y-92908942D01*
X117464286Y-92908942D02*
X117159524Y-92908942D01*
X118302381Y-92756561D02*
X118302381Y-93289895D01*
X118111905Y-92451800D02*
X117921428Y-93023228D01*
X117921428Y-93023228D02*
X118416667Y-93023228D01*
X124666666Y-97058609D02*
X124333333Y-97058609D01*
X124333333Y-97582419D02*
X124333333Y-96582419D01*
X124333333Y-96582419D02*
X124809523Y-96582419D01*
X125523809Y-97058609D02*
X125666666Y-97106228D01*
X125666666Y-97106228D02*
X125714285Y-97153847D01*
X125714285Y-97153847D02*
X125761904Y-97249085D01*
X125761904Y-97249085D02*
X125761904Y-97391942D01*
X125761904Y-97391942D02*
X125714285Y-97487180D01*
X125714285Y-97487180D02*
X125666666Y-97534800D01*
X125666666Y-97534800D02*
X125571428Y-97582419D01*
X125571428Y-97582419D02*
X125190476Y-97582419D01*
X125190476Y-97582419D02*
X125190476Y-96582419D01*
X125190476Y-96582419D02*
X125523809Y-96582419D01*
X125523809Y-96582419D02*
X125619047Y-96630038D01*
X125619047Y-96630038D02*
X125666666Y-96677657D01*
X125666666Y-96677657D02*
X125714285Y-96772895D01*
X125714285Y-96772895D02*
X125714285Y-96868133D01*
X125714285Y-96868133D02*
X125666666Y-96963371D01*
X125666666Y-96963371D02*
X125619047Y-97010990D01*
X125619047Y-97010990D02*
X125523809Y-97058609D01*
X125523809Y-97058609D02*
X125190476Y-97058609D01*
X126142857Y-96677657D02*
X126190476Y-96630038D01*
X126190476Y-96630038D02*
X126285714Y-96582419D01*
X126285714Y-96582419D02*
X126523809Y-96582419D01*
X126523809Y-96582419D02*
X126619047Y-96630038D01*
X126619047Y-96630038D02*
X126666666Y-96677657D01*
X126666666Y-96677657D02*
X126714285Y-96772895D01*
X126714285Y-96772895D02*
X126714285Y-96868133D01*
X126714285Y-96868133D02*
X126666666Y-97010990D01*
X126666666Y-97010990D02*
X126095238Y-97582419D01*
X126095238Y-97582419D02*
X126714285Y-97582419D01*
X150316390Y-75041666D02*
X150316390Y-74708333D01*
X149792580Y-74708333D02*
X150792580Y-74708333D01*
X150792580Y-74708333D02*
X150792580Y-75184523D01*
X150316390Y-75898809D02*
X150268771Y-76041666D01*
X150268771Y-76041666D02*
X150221152Y-76089285D01*
X150221152Y-76089285D02*
X150125914Y-76136904D01*
X150125914Y-76136904D02*
X149983057Y-76136904D01*
X149983057Y-76136904D02*
X149887819Y-76089285D01*
X149887819Y-76089285D02*
X149840200Y-76041666D01*
X149840200Y-76041666D02*
X149792580Y-75946428D01*
X149792580Y-75946428D02*
X149792580Y-75565476D01*
X149792580Y-75565476D02*
X150792580Y-75565476D01*
X150792580Y-75565476D02*
X150792580Y-75898809D01*
X150792580Y-75898809D02*
X150744961Y-75994047D01*
X150744961Y-75994047D02*
X150697342Y-76041666D01*
X150697342Y-76041666D02*
X150602104Y-76089285D01*
X150602104Y-76089285D02*
X150506866Y-76089285D01*
X150506866Y-76089285D02*
X150411628Y-76041666D01*
X150411628Y-76041666D02*
X150364009Y-75994047D01*
X150364009Y-75994047D02*
X150316390Y-75898809D01*
X150316390Y-75898809D02*
X150316390Y-75565476D01*
X150792580Y-76994047D02*
X150792580Y-76803571D01*
X150792580Y-76803571D02*
X150744961Y-76708333D01*
X150744961Y-76708333D02*
X150697342Y-76660714D01*
X150697342Y-76660714D02*
X150554485Y-76565476D01*
X150554485Y-76565476D02*
X150364009Y-76517857D01*
X150364009Y-76517857D02*
X149983057Y-76517857D01*
X149983057Y-76517857D02*
X149887819Y-76565476D01*
X149887819Y-76565476D02*
X149840200Y-76613095D01*
X149840200Y-76613095D02*
X149792580Y-76708333D01*
X149792580Y-76708333D02*
X149792580Y-76898809D01*
X149792580Y-76898809D02*
X149840200Y-76994047D01*
X149840200Y-76994047D02*
X149887819Y-77041666D01*
X149887819Y-77041666D02*
X149983057Y-77089285D01*
X149983057Y-77089285D02*
X150221152Y-77089285D01*
X150221152Y-77089285D02*
X150316390Y-77041666D01*
X150316390Y-77041666D02*
X150364009Y-76994047D01*
X150364009Y-76994047D02*
X150411628Y-76898809D01*
X150411628Y-76898809D02*
X150411628Y-76708333D01*
X150411628Y-76708333D02*
X150364009Y-76613095D01*
X150364009Y-76613095D02*
X150316390Y-76565476D01*
X150316390Y-76565476D02*
X150221152Y-76517857D01*
X137785714Y-87413704D02*
X137747618Y-87451800D01*
X137747618Y-87451800D02*
X137633333Y-87489895D01*
X137633333Y-87489895D02*
X137557142Y-87489895D01*
X137557142Y-87489895D02*
X137442856Y-87451800D01*
X137442856Y-87451800D02*
X137366666Y-87375609D01*
X137366666Y-87375609D02*
X137328571Y-87299419D01*
X137328571Y-87299419D02*
X137290475Y-87147038D01*
X137290475Y-87147038D02*
X137290475Y-87032752D01*
X137290475Y-87032752D02*
X137328571Y-86880371D01*
X137328571Y-86880371D02*
X137366666Y-86804180D01*
X137366666Y-86804180D02*
X137442856Y-86727990D01*
X137442856Y-86727990D02*
X137557142Y-86689895D01*
X137557142Y-86689895D02*
X137633333Y-86689895D01*
X137633333Y-86689895D02*
X137747618Y-86727990D01*
X137747618Y-86727990D02*
X137785714Y-86766085D01*
X138547618Y-87489895D02*
X138090475Y-87489895D01*
X138319047Y-87489895D02*
X138319047Y-86689895D01*
X138319047Y-86689895D02*
X138242856Y-86804180D01*
X138242856Y-86804180D02*
X138166666Y-86880371D01*
X138166666Y-86880371D02*
X138090475Y-86918466D01*
X139233333Y-86689895D02*
X139080952Y-86689895D01*
X139080952Y-86689895D02*
X139004761Y-86727990D01*
X139004761Y-86727990D02*
X138966666Y-86766085D01*
X138966666Y-86766085D02*
X138890476Y-86880371D01*
X138890476Y-86880371D02*
X138852380Y-87032752D01*
X138852380Y-87032752D02*
X138852380Y-87337514D01*
X138852380Y-87337514D02*
X138890476Y-87413704D01*
X138890476Y-87413704D02*
X138928571Y-87451800D01*
X138928571Y-87451800D02*
X139004761Y-87489895D01*
X139004761Y-87489895D02*
X139157142Y-87489895D01*
X139157142Y-87489895D02*
X139233333Y-87451800D01*
X139233333Y-87451800D02*
X139271428Y-87413704D01*
X139271428Y-87413704D02*
X139309523Y-87337514D01*
X139309523Y-87337514D02*
X139309523Y-87147038D01*
X139309523Y-87147038D02*
X139271428Y-87070847D01*
X139271428Y-87070847D02*
X139233333Y-87032752D01*
X139233333Y-87032752D02*
X139157142Y-86994657D01*
X139157142Y-86994657D02*
X139004761Y-86994657D01*
X139004761Y-86994657D02*
X138928571Y-87032752D01*
X138928571Y-87032752D02*
X138890476Y-87070847D01*
X138890476Y-87070847D02*
X138852380Y-87147038D01*
X131988704Y-79439285D02*
X132026800Y-79477381D01*
X132026800Y-79477381D02*
X132064895Y-79591666D01*
X132064895Y-79591666D02*
X132064895Y-79667857D01*
X132064895Y-79667857D02*
X132026800Y-79782143D01*
X132026800Y-79782143D02*
X131950609Y-79858333D01*
X131950609Y-79858333D02*
X131874419Y-79896428D01*
X131874419Y-79896428D02*
X131722038Y-79934524D01*
X131722038Y-79934524D02*
X131607752Y-79934524D01*
X131607752Y-79934524D02*
X131455371Y-79896428D01*
X131455371Y-79896428D02*
X131379180Y-79858333D01*
X131379180Y-79858333D02*
X131302990Y-79782143D01*
X131302990Y-79782143D02*
X131264895Y-79667857D01*
X131264895Y-79667857D02*
X131264895Y-79591666D01*
X131264895Y-79591666D02*
X131302990Y-79477381D01*
X131302990Y-79477381D02*
X131341085Y-79439285D01*
X132064895Y-78677381D02*
X132064895Y-79134524D01*
X132064895Y-78905952D02*
X131264895Y-78905952D01*
X131264895Y-78905952D02*
X131379180Y-78982143D01*
X131379180Y-78982143D02*
X131455371Y-79058333D01*
X131455371Y-79058333D02*
X131493466Y-79134524D01*
X131264895Y-77953571D02*
X131264895Y-78334523D01*
X131264895Y-78334523D02*
X131645847Y-78372619D01*
X131645847Y-78372619D02*
X131607752Y-78334523D01*
X131607752Y-78334523D02*
X131569657Y-78258333D01*
X131569657Y-78258333D02*
X131569657Y-78067857D01*
X131569657Y-78067857D02*
X131607752Y-77991666D01*
X131607752Y-77991666D02*
X131645847Y-77953571D01*
X131645847Y-77953571D02*
X131722038Y-77915476D01*
X131722038Y-77915476D02*
X131912514Y-77915476D01*
X131912514Y-77915476D02*
X131988704Y-77953571D01*
X131988704Y-77953571D02*
X132026800Y-77991666D01*
X132026800Y-77991666D02*
X132064895Y-78067857D01*
X132064895Y-78067857D02*
X132064895Y-78258333D01*
X132064895Y-78258333D02*
X132026800Y-78334523D01*
X132026800Y-78334523D02*
X131988704Y-78372619D01*
X129866667Y-74913704D02*
X129828571Y-74951800D01*
X129828571Y-74951800D02*
X129714286Y-74989895D01*
X129714286Y-74989895D02*
X129638095Y-74989895D01*
X129638095Y-74989895D02*
X129523809Y-74951800D01*
X129523809Y-74951800D02*
X129447619Y-74875609D01*
X129447619Y-74875609D02*
X129409524Y-74799419D01*
X129409524Y-74799419D02*
X129371428Y-74647038D01*
X129371428Y-74647038D02*
X129371428Y-74532752D01*
X129371428Y-74532752D02*
X129409524Y-74380371D01*
X129409524Y-74380371D02*
X129447619Y-74304180D01*
X129447619Y-74304180D02*
X129523809Y-74227990D01*
X129523809Y-74227990D02*
X129638095Y-74189895D01*
X129638095Y-74189895D02*
X129714286Y-74189895D01*
X129714286Y-74189895D02*
X129828571Y-74227990D01*
X129828571Y-74227990D02*
X129866667Y-74266085D01*
X130323809Y-74532752D02*
X130247619Y-74494657D01*
X130247619Y-74494657D02*
X130209524Y-74456561D01*
X130209524Y-74456561D02*
X130171428Y-74380371D01*
X130171428Y-74380371D02*
X130171428Y-74342276D01*
X130171428Y-74342276D02*
X130209524Y-74266085D01*
X130209524Y-74266085D02*
X130247619Y-74227990D01*
X130247619Y-74227990D02*
X130323809Y-74189895D01*
X130323809Y-74189895D02*
X130476190Y-74189895D01*
X130476190Y-74189895D02*
X130552381Y-74227990D01*
X130552381Y-74227990D02*
X130590476Y-74266085D01*
X130590476Y-74266085D02*
X130628571Y-74342276D01*
X130628571Y-74342276D02*
X130628571Y-74380371D01*
X130628571Y-74380371D02*
X130590476Y-74456561D01*
X130590476Y-74456561D02*
X130552381Y-74494657D01*
X130552381Y-74494657D02*
X130476190Y-74532752D01*
X130476190Y-74532752D02*
X130323809Y-74532752D01*
X130323809Y-74532752D02*
X130247619Y-74570847D01*
X130247619Y-74570847D02*
X130209524Y-74608942D01*
X130209524Y-74608942D02*
X130171428Y-74685133D01*
X130171428Y-74685133D02*
X130171428Y-74837514D01*
X130171428Y-74837514D02*
X130209524Y-74913704D01*
X130209524Y-74913704D02*
X130247619Y-74951800D01*
X130247619Y-74951800D02*
X130323809Y-74989895D01*
X130323809Y-74989895D02*
X130476190Y-74989895D01*
X130476190Y-74989895D02*
X130552381Y-74951800D01*
X130552381Y-74951800D02*
X130590476Y-74913704D01*
X130590476Y-74913704D02*
X130628571Y-74837514D01*
X130628571Y-74837514D02*
X130628571Y-74685133D01*
X130628571Y-74685133D02*
X130590476Y-74608942D01*
X130590476Y-74608942D02*
X130552381Y-74570847D01*
X130552381Y-74570847D02*
X130476190Y-74532752D01*
X123985714Y-93239895D02*
X123719047Y-92858942D01*
X123528571Y-93239895D02*
X123528571Y-92439895D01*
X123528571Y-92439895D02*
X123833333Y-92439895D01*
X123833333Y-92439895D02*
X123909523Y-92477990D01*
X123909523Y-92477990D02*
X123947618Y-92516085D01*
X123947618Y-92516085D02*
X123985714Y-92592276D01*
X123985714Y-92592276D02*
X123985714Y-92706561D01*
X123985714Y-92706561D02*
X123947618Y-92782752D01*
X123947618Y-92782752D02*
X123909523Y-92820847D01*
X123909523Y-92820847D02*
X123833333Y-92858942D01*
X123833333Y-92858942D02*
X123528571Y-92858942D01*
X124747618Y-93239895D02*
X124290475Y-93239895D01*
X124519047Y-93239895D02*
X124519047Y-92439895D01*
X124519047Y-92439895D02*
X124442856Y-92554180D01*
X124442856Y-92554180D02*
X124366666Y-92630371D01*
X124366666Y-92630371D02*
X124290475Y-92668466D01*
X125509523Y-93239895D02*
X125052380Y-93239895D01*
X125280952Y-93239895D02*
X125280952Y-92439895D01*
X125280952Y-92439895D02*
X125204761Y-92554180D01*
X125204761Y-92554180D02*
X125128571Y-92630371D01*
X125128571Y-92630371D02*
X125052380Y-92668466D01*
X163185714Y-83813704D02*
X163147618Y-83851800D01*
X163147618Y-83851800D02*
X163033333Y-83889895D01*
X163033333Y-83889895D02*
X162957142Y-83889895D01*
X162957142Y-83889895D02*
X162842856Y-83851800D01*
X162842856Y-83851800D02*
X162766666Y-83775609D01*
X162766666Y-83775609D02*
X162728571Y-83699419D01*
X162728571Y-83699419D02*
X162690475Y-83547038D01*
X162690475Y-83547038D02*
X162690475Y-83432752D01*
X162690475Y-83432752D02*
X162728571Y-83280371D01*
X162728571Y-83280371D02*
X162766666Y-83204180D01*
X162766666Y-83204180D02*
X162842856Y-83127990D01*
X162842856Y-83127990D02*
X162957142Y-83089895D01*
X162957142Y-83089895D02*
X163033333Y-83089895D01*
X163033333Y-83089895D02*
X163147618Y-83127990D01*
X163147618Y-83127990D02*
X163185714Y-83166085D01*
X163947618Y-83889895D02*
X163490475Y-83889895D01*
X163719047Y-83889895D02*
X163719047Y-83089895D01*
X163719047Y-83089895D02*
X163642856Y-83204180D01*
X163642856Y-83204180D02*
X163566666Y-83280371D01*
X163566666Y-83280371D02*
X163490475Y-83318466D01*
X164709523Y-83889895D02*
X164252380Y-83889895D01*
X164480952Y-83889895D02*
X164480952Y-83089895D01*
X164480952Y-83089895D02*
X164404761Y-83204180D01*
X164404761Y-83204180D02*
X164328571Y-83280371D01*
X164328571Y-83280371D02*
X164252380Y-83318466D01*
X133664895Y-96458332D02*
X133283942Y-96724999D01*
X133664895Y-96915475D02*
X132864895Y-96915475D01*
X132864895Y-96915475D02*
X132864895Y-96610713D01*
X132864895Y-96610713D02*
X132902990Y-96534523D01*
X132902990Y-96534523D02*
X132941085Y-96496428D01*
X132941085Y-96496428D02*
X133017276Y-96458332D01*
X133017276Y-96458332D02*
X133131561Y-96458332D01*
X133131561Y-96458332D02*
X133207752Y-96496428D01*
X133207752Y-96496428D02*
X133245847Y-96534523D01*
X133245847Y-96534523D02*
X133283942Y-96610713D01*
X133283942Y-96610713D02*
X133283942Y-96915475D01*
X132864895Y-96191666D02*
X132864895Y-95696428D01*
X132864895Y-95696428D02*
X133169657Y-95963094D01*
X133169657Y-95963094D02*
X133169657Y-95848809D01*
X133169657Y-95848809D02*
X133207752Y-95772618D01*
X133207752Y-95772618D02*
X133245847Y-95734523D01*
X133245847Y-95734523D02*
X133322038Y-95696428D01*
X133322038Y-95696428D02*
X133512514Y-95696428D01*
X133512514Y-95696428D02*
X133588704Y-95734523D01*
X133588704Y-95734523D02*
X133626800Y-95772618D01*
X133626800Y-95772618D02*
X133664895Y-95848809D01*
X133664895Y-95848809D02*
X133664895Y-96077380D01*
X133664895Y-96077380D02*
X133626800Y-96153571D01*
X133626800Y-96153571D02*
X133588704Y-96191666D01*
X150064895Y-80734523D02*
X150712514Y-80734523D01*
X150712514Y-80734523D02*
X150788704Y-80696428D01*
X150788704Y-80696428D02*
X150826800Y-80658333D01*
X150826800Y-80658333D02*
X150864895Y-80582142D01*
X150864895Y-80582142D02*
X150864895Y-80429761D01*
X150864895Y-80429761D02*
X150826800Y-80353571D01*
X150826800Y-80353571D02*
X150788704Y-80315476D01*
X150788704Y-80315476D02*
X150712514Y-80277380D01*
X150712514Y-80277380D02*
X150064895Y-80277380D01*
X150141085Y-79934524D02*
X150102990Y-79896428D01*
X150102990Y-79896428D02*
X150064895Y-79820238D01*
X150064895Y-79820238D02*
X150064895Y-79629762D01*
X150064895Y-79629762D02*
X150102990Y-79553571D01*
X150102990Y-79553571D02*
X150141085Y-79515476D01*
X150141085Y-79515476D02*
X150217276Y-79477381D01*
X150217276Y-79477381D02*
X150293466Y-79477381D01*
X150293466Y-79477381D02*
X150407752Y-79515476D01*
X150407752Y-79515476D02*
X150864895Y-79972619D01*
X150864895Y-79972619D02*
X150864895Y-79477381D01*
X137135104Y-95991667D02*
X137516057Y-95725000D01*
X137135104Y-95534524D02*
X137935104Y-95534524D01*
X137935104Y-95534524D02*
X137935104Y-95839286D01*
X137935104Y-95839286D02*
X137897009Y-95915476D01*
X137897009Y-95915476D02*
X137858914Y-95953571D01*
X137858914Y-95953571D02*
X137782723Y-95991667D01*
X137782723Y-95991667D02*
X137668438Y-95991667D01*
X137668438Y-95991667D02*
X137592247Y-95953571D01*
X137592247Y-95953571D02*
X137554152Y-95915476D01*
X137554152Y-95915476D02*
X137516057Y-95839286D01*
X137516057Y-95839286D02*
X137516057Y-95534524D01*
X137858914Y-96296428D02*
X137897009Y-96334524D01*
X137897009Y-96334524D02*
X137935104Y-96410714D01*
X137935104Y-96410714D02*
X137935104Y-96601190D01*
X137935104Y-96601190D02*
X137897009Y-96677381D01*
X137897009Y-96677381D02*
X137858914Y-96715476D01*
X137858914Y-96715476D02*
X137782723Y-96753571D01*
X137782723Y-96753571D02*
X137706533Y-96753571D01*
X137706533Y-96753571D02*
X137592247Y-96715476D01*
X137592247Y-96715476D02*
X137135104Y-96258333D01*
X137135104Y-96258333D02*
X137135104Y-96753571D01*
X150226190Y-89318914D02*
X150302380Y-89357009D01*
X150302380Y-89357009D02*
X150378571Y-89433200D01*
X150378571Y-89433200D02*
X150492857Y-89547485D01*
X150492857Y-89547485D02*
X150569047Y-89585580D01*
X150569047Y-89585580D02*
X150645238Y-89585580D01*
X150607142Y-89395104D02*
X150683333Y-89433200D01*
X150683333Y-89433200D02*
X150759523Y-89509390D01*
X150759523Y-89509390D02*
X150797619Y-89661771D01*
X150797619Y-89661771D02*
X150797619Y-89928438D01*
X150797619Y-89928438D02*
X150759523Y-90080819D01*
X150759523Y-90080819D02*
X150683333Y-90157009D01*
X150683333Y-90157009D02*
X150607142Y-90195104D01*
X150607142Y-90195104D02*
X150454761Y-90195104D01*
X150454761Y-90195104D02*
X150378571Y-90157009D01*
X150378571Y-90157009D02*
X150302380Y-90080819D01*
X150302380Y-90080819D02*
X150264285Y-89928438D01*
X150264285Y-89928438D02*
X150264285Y-89661771D01*
X150264285Y-89661771D02*
X150302380Y-89509390D01*
X150302380Y-89509390D02*
X150378571Y-89433200D01*
X150378571Y-89433200D02*
X150454761Y-89395104D01*
X150454761Y-89395104D02*
X150607142Y-89395104D01*
X149502381Y-89395104D02*
X149959524Y-89395104D01*
X149730952Y-89395104D02*
X149730952Y-90195104D01*
X149730952Y-90195104D02*
X149807143Y-90080819D01*
X149807143Y-90080819D02*
X149883333Y-90004628D01*
X149883333Y-90004628D02*
X149959524Y-89966533D01*
X134766667Y-85089895D02*
X134500000Y-84708942D01*
X134309524Y-85089895D02*
X134309524Y-84289895D01*
X134309524Y-84289895D02*
X134614286Y-84289895D01*
X134614286Y-84289895D02*
X134690476Y-84327990D01*
X134690476Y-84327990D02*
X134728571Y-84366085D01*
X134728571Y-84366085D02*
X134766667Y-84442276D01*
X134766667Y-84442276D02*
X134766667Y-84556561D01*
X134766667Y-84556561D02*
X134728571Y-84632752D01*
X134728571Y-84632752D02*
X134690476Y-84670847D01*
X134690476Y-84670847D02*
X134614286Y-84708942D01*
X134614286Y-84708942D02*
X134309524Y-84708942D01*
X135490476Y-84289895D02*
X135109524Y-84289895D01*
X135109524Y-84289895D02*
X135071428Y-84670847D01*
X135071428Y-84670847D02*
X135109524Y-84632752D01*
X135109524Y-84632752D02*
X135185714Y-84594657D01*
X135185714Y-84594657D02*
X135376190Y-84594657D01*
X135376190Y-84594657D02*
X135452381Y-84632752D01*
X135452381Y-84632752D02*
X135490476Y-84670847D01*
X135490476Y-84670847D02*
X135528571Y-84747038D01*
X135528571Y-84747038D02*
X135528571Y-84937514D01*
X135528571Y-84937514D02*
X135490476Y-85013704D01*
X135490476Y-85013704D02*
X135452381Y-85051800D01*
X135452381Y-85051800D02*
X135376190Y-85089895D01*
X135376190Y-85089895D02*
X135185714Y-85089895D01*
X135185714Y-85089895D02*
X135109524Y-85051800D01*
X135109524Y-85051800D02*
X135071428Y-85013704D01*
X122416667Y-93213704D02*
X122378571Y-93251800D01*
X122378571Y-93251800D02*
X122264286Y-93289895D01*
X122264286Y-93289895D02*
X122188095Y-93289895D01*
X122188095Y-93289895D02*
X122073809Y-93251800D01*
X122073809Y-93251800D02*
X121997619Y-93175609D01*
X121997619Y-93175609D02*
X121959524Y-93099419D01*
X121959524Y-93099419D02*
X121921428Y-92947038D01*
X121921428Y-92947038D02*
X121921428Y-92832752D01*
X121921428Y-92832752D02*
X121959524Y-92680371D01*
X121959524Y-92680371D02*
X121997619Y-92604180D01*
X121997619Y-92604180D02*
X122073809Y-92527990D01*
X122073809Y-92527990D02*
X122188095Y-92489895D01*
X122188095Y-92489895D02*
X122264286Y-92489895D01*
X122264286Y-92489895D02*
X122378571Y-92527990D01*
X122378571Y-92527990D02*
X122416667Y-92566085D01*
X123140476Y-92489895D02*
X122759524Y-92489895D01*
X122759524Y-92489895D02*
X122721428Y-92870847D01*
X122721428Y-92870847D02*
X122759524Y-92832752D01*
X122759524Y-92832752D02*
X122835714Y-92794657D01*
X122835714Y-92794657D02*
X123026190Y-92794657D01*
X123026190Y-92794657D02*
X123102381Y-92832752D01*
X123102381Y-92832752D02*
X123140476Y-92870847D01*
X123140476Y-92870847D02*
X123178571Y-92947038D01*
X123178571Y-92947038D02*
X123178571Y-93137514D01*
X123178571Y-93137514D02*
X123140476Y-93213704D01*
X123140476Y-93213704D02*
X123102381Y-93251800D01*
X123102381Y-93251800D02*
X123026190Y-93289895D01*
X123026190Y-93289895D02*
X122835714Y-93289895D01*
X122835714Y-93289895D02*
X122759524Y-93251800D01*
X122759524Y-93251800D02*
X122721428Y-93213704D01*
X157781295Y-80766667D02*
X157743200Y-80728571D01*
X157743200Y-80728571D02*
X157705104Y-80614286D01*
X157705104Y-80614286D02*
X157705104Y-80538095D01*
X157705104Y-80538095D02*
X157743200Y-80423809D01*
X157743200Y-80423809D02*
X157819390Y-80347619D01*
X157819390Y-80347619D02*
X157895580Y-80309524D01*
X157895580Y-80309524D02*
X158047961Y-80271428D01*
X158047961Y-80271428D02*
X158162247Y-80271428D01*
X158162247Y-80271428D02*
X158314628Y-80309524D01*
X158314628Y-80309524D02*
X158390819Y-80347619D01*
X158390819Y-80347619D02*
X158467009Y-80423809D01*
X158467009Y-80423809D02*
X158505104Y-80538095D01*
X158505104Y-80538095D02*
X158505104Y-80614286D01*
X158505104Y-80614286D02*
X158467009Y-80728571D01*
X158467009Y-80728571D02*
X158428914Y-80766667D01*
X158505104Y-81033333D02*
X158505104Y-81528571D01*
X158505104Y-81528571D02*
X158200342Y-81261905D01*
X158200342Y-81261905D02*
X158200342Y-81376190D01*
X158200342Y-81376190D02*
X158162247Y-81452381D01*
X158162247Y-81452381D02*
X158124152Y-81490476D01*
X158124152Y-81490476D02*
X158047961Y-81528571D01*
X158047961Y-81528571D02*
X157857485Y-81528571D01*
X157857485Y-81528571D02*
X157781295Y-81490476D01*
X157781295Y-81490476D02*
X157743200Y-81452381D01*
X157743200Y-81452381D02*
X157705104Y-81376190D01*
X157705104Y-81376190D02*
X157705104Y-81147619D01*
X157705104Y-81147619D02*
X157743200Y-81071428D01*
X157743200Y-81071428D02*
X157781295Y-81033333D01*
X147890476Y-72689895D02*
X147890476Y-73337514D01*
X147890476Y-73337514D02*
X147928571Y-73413704D01*
X147928571Y-73413704D02*
X147966666Y-73451800D01*
X147966666Y-73451800D02*
X148042857Y-73489895D01*
X148042857Y-73489895D02*
X148195238Y-73489895D01*
X148195238Y-73489895D02*
X148271428Y-73451800D01*
X148271428Y-73451800D02*
X148309523Y-73413704D01*
X148309523Y-73413704D02*
X148347619Y-73337514D01*
X148347619Y-73337514D02*
X148347619Y-72689895D01*
X149109523Y-72689895D02*
X148728571Y-72689895D01*
X148728571Y-72689895D02*
X148690475Y-73070847D01*
X148690475Y-73070847D02*
X148728571Y-73032752D01*
X148728571Y-73032752D02*
X148804761Y-72994657D01*
X148804761Y-72994657D02*
X148995237Y-72994657D01*
X148995237Y-72994657D02*
X149071428Y-73032752D01*
X149071428Y-73032752D02*
X149109523Y-73070847D01*
X149109523Y-73070847D02*
X149147618Y-73147038D01*
X149147618Y-73147038D02*
X149147618Y-73337514D01*
X149147618Y-73337514D02*
X149109523Y-73413704D01*
X149109523Y-73413704D02*
X149071428Y-73451800D01*
X149071428Y-73451800D02*
X148995237Y-73489895D01*
X148995237Y-73489895D02*
X148804761Y-73489895D01*
X148804761Y-73489895D02*
X148728571Y-73451800D01*
X148728571Y-73451800D02*
X148690475Y-73413704D01*
X126785714Y-93213704D02*
X126747618Y-93251800D01*
X126747618Y-93251800D02*
X126633333Y-93289895D01*
X126633333Y-93289895D02*
X126557142Y-93289895D01*
X126557142Y-93289895D02*
X126442856Y-93251800D01*
X126442856Y-93251800D02*
X126366666Y-93175609D01*
X126366666Y-93175609D02*
X126328571Y-93099419D01*
X126328571Y-93099419D02*
X126290475Y-92947038D01*
X126290475Y-92947038D02*
X126290475Y-92832752D01*
X126290475Y-92832752D02*
X126328571Y-92680371D01*
X126328571Y-92680371D02*
X126366666Y-92604180D01*
X126366666Y-92604180D02*
X126442856Y-92527990D01*
X126442856Y-92527990D02*
X126557142Y-92489895D01*
X126557142Y-92489895D02*
X126633333Y-92489895D01*
X126633333Y-92489895D02*
X126747618Y-92527990D01*
X126747618Y-92527990D02*
X126785714Y-92566085D01*
X127547618Y-93289895D02*
X127090475Y-93289895D01*
X127319047Y-93289895D02*
X127319047Y-92489895D01*
X127319047Y-92489895D02*
X127242856Y-92604180D01*
X127242856Y-92604180D02*
X127166666Y-92680371D01*
X127166666Y-92680371D02*
X127090475Y-92718466D01*
X127928571Y-93289895D02*
X128080952Y-93289895D01*
X128080952Y-93289895D02*
X128157142Y-93251800D01*
X128157142Y-93251800D02*
X128195238Y-93213704D01*
X128195238Y-93213704D02*
X128271428Y-93099419D01*
X128271428Y-93099419D02*
X128309523Y-92947038D01*
X128309523Y-92947038D02*
X128309523Y-92642276D01*
X128309523Y-92642276D02*
X128271428Y-92566085D01*
X128271428Y-92566085D02*
X128233333Y-92527990D01*
X128233333Y-92527990D02*
X128157142Y-92489895D01*
X128157142Y-92489895D02*
X128004761Y-92489895D01*
X128004761Y-92489895D02*
X127928571Y-92527990D01*
X127928571Y-92527990D02*
X127890476Y-92566085D01*
X127890476Y-92566085D02*
X127852380Y-92642276D01*
X127852380Y-92642276D02*
X127852380Y-92832752D01*
X127852380Y-92832752D02*
X127890476Y-92908942D01*
X127890476Y-92908942D02*
X127928571Y-92947038D01*
X127928571Y-92947038D02*
X128004761Y-92985133D01*
X128004761Y-92985133D02*
X128157142Y-92985133D01*
X128157142Y-92985133D02*
X128233333Y-92947038D01*
X128233333Y-92947038D02*
X128271428Y-92908942D01*
X128271428Y-92908942D02*
X128309523Y-92832752D01*
X129211295Y-94335714D02*
X129173200Y-94297618D01*
X129173200Y-94297618D02*
X129135104Y-94183333D01*
X129135104Y-94183333D02*
X129135104Y-94107142D01*
X129135104Y-94107142D02*
X129173200Y-93992856D01*
X129173200Y-93992856D02*
X129249390Y-93916666D01*
X129249390Y-93916666D02*
X129325580Y-93878571D01*
X129325580Y-93878571D02*
X129477961Y-93840475D01*
X129477961Y-93840475D02*
X129592247Y-93840475D01*
X129592247Y-93840475D02*
X129744628Y-93878571D01*
X129744628Y-93878571D02*
X129820819Y-93916666D01*
X129820819Y-93916666D02*
X129897009Y-93992856D01*
X129897009Y-93992856D02*
X129935104Y-94107142D01*
X129935104Y-94107142D02*
X129935104Y-94183333D01*
X129935104Y-94183333D02*
X129897009Y-94297618D01*
X129897009Y-94297618D02*
X129858914Y-94335714D01*
X129858914Y-94640475D02*
X129897009Y-94678571D01*
X129897009Y-94678571D02*
X129935104Y-94754761D01*
X129935104Y-94754761D02*
X129935104Y-94945237D01*
X129935104Y-94945237D02*
X129897009Y-95021428D01*
X129897009Y-95021428D02*
X129858914Y-95059523D01*
X129858914Y-95059523D02*
X129782723Y-95097618D01*
X129782723Y-95097618D02*
X129706533Y-95097618D01*
X129706533Y-95097618D02*
X129592247Y-95059523D01*
X129592247Y-95059523D02*
X129135104Y-94602380D01*
X129135104Y-94602380D02*
X129135104Y-95097618D01*
X129935104Y-95592857D02*
X129935104Y-95669047D01*
X129935104Y-95669047D02*
X129897009Y-95745238D01*
X129897009Y-95745238D02*
X129858914Y-95783333D01*
X129858914Y-95783333D02*
X129782723Y-95821428D01*
X129782723Y-95821428D02*
X129630342Y-95859523D01*
X129630342Y-95859523D02*
X129439866Y-95859523D01*
X129439866Y-95859523D02*
X129287485Y-95821428D01*
X129287485Y-95821428D02*
X129211295Y-95783333D01*
X129211295Y-95783333D02*
X129173200Y-95745238D01*
X129173200Y-95745238D02*
X129135104Y-95669047D01*
X129135104Y-95669047D02*
X129135104Y-95592857D01*
X129135104Y-95592857D02*
X129173200Y-95516666D01*
X129173200Y-95516666D02*
X129211295Y-95478571D01*
X129211295Y-95478571D02*
X129287485Y-95440476D01*
X129287485Y-95440476D02*
X129439866Y-95402380D01*
X129439866Y-95402380D02*
X129630342Y-95402380D01*
X129630342Y-95402380D02*
X129782723Y-95440476D01*
X129782723Y-95440476D02*
X129858914Y-95478571D01*
X129858914Y-95478571D02*
X129897009Y-95516666D01*
X129897009Y-95516666D02*
X129935104Y-95592857D01*
X165611295Y-83410714D02*
X165573200Y-83372618D01*
X165573200Y-83372618D02*
X165535104Y-83258333D01*
X165535104Y-83258333D02*
X165535104Y-83182142D01*
X165535104Y-83182142D02*
X165573200Y-83067856D01*
X165573200Y-83067856D02*
X165649390Y-82991666D01*
X165649390Y-82991666D02*
X165725580Y-82953571D01*
X165725580Y-82953571D02*
X165877961Y-82915475D01*
X165877961Y-82915475D02*
X165992247Y-82915475D01*
X165992247Y-82915475D02*
X166144628Y-82953571D01*
X166144628Y-82953571D02*
X166220819Y-82991666D01*
X166220819Y-82991666D02*
X166297009Y-83067856D01*
X166297009Y-83067856D02*
X166335104Y-83182142D01*
X166335104Y-83182142D02*
X166335104Y-83258333D01*
X166335104Y-83258333D02*
X166297009Y-83372618D01*
X166297009Y-83372618D02*
X166258914Y-83410714D01*
X165535104Y-84172618D02*
X165535104Y-83715475D01*
X165535104Y-83944047D02*
X166335104Y-83944047D01*
X166335104Y-83944047D02*
X166220819Y-83867856D01*
X166220819Y-83867856D02*
X166144628Y-83791666D01*
X166144628Y-83791666D02*
X166106533Y-83715475D01*
X166068438Y-84858333D02*
X165535104Y-84858333D01*
X166373200Y-84667857D02*
X165801771Y-84477380D01*
X165801771Y-84477380D02*
X165801771Y-84972619D01*
X165864895Y-75839285D02*
X165864895Y-76220237D01*
X165864895Y-76220237D02*
X165064895Y-76220237D01*
X165826800Y-75610714D02*
X165864895Y-75496428D01*
X165864895Y-75496428D02*
X165864895Y-75305952D01*
X165864895Y-75305952D02*
X165826800Y-75229761D01*
X165826800Y-75229761D02*
X165788704Y-75191666D01*
X165788704Y-75191666D02*
X165712514Y-75153571D01*
X165712514Y-75153571D02*
X165636323Y-75153571D01*
X165636323Y-75153571D02*
X165560133Y-75191666D01*
X165560133Y-75191666D02*
X165522038Y-75229761D01*
X165522038Y-75229761D02*
X165483942Y-75305952D01*
X165483942Y-75305952D02*
X165445847Y-75458333D01*
X165445847Y-75458333D02*
X165407752Y-75534523D01*
X165407752Y-75534523D02*
X165369657Y-75572618D01*
X165369657Y-75572618D02*
X165293466Y-75610714D01*
X165293466Y-75610714D02*
X165217276Y-75610714D01*
X165217276Y-75610714D02*
X165141085Y-75572618D01*
X165141085Y-75572618D02*
X165102990Y-75534523D01*
X165102990Y-75534523D02*
X165064895Y-75458333D01*
X165064895Y-75458333D02*
X165064895Y-75267856D01*
X165064895Y-75267856D02*
X165102990Y-75153571D01*
X165141085Y-74848809D02*
X165102990Y-74810713D01*
X165102990Y-74810713D02*
X165064895Y-74734523D01*
X165064895Y-74734523D02*
X165064895Y-74544047D01*
X165064895Y-74544047D02*
X165102990Y-74467856D01*
X165102990Y-74467856D02*
X165141085Y-74429761D01*
X165141085Y-74429761D02*
X165217276Y-74391666D01*
X165217276Y-74391666D02*
X165293466Y-74391666D01*
X165293466Y-74391666D02*
X165407752Y-74429761D01*
X165407752Y-74429761D02*
X165864895Y-74886904D01*
X165864895Y-74886904D02*
X165864895Y-74391666D01*
X136335104Y-91010714D02*
X136716057Y-90744047D01*
X136335104Y-90553571D02*
X137135104Y-90553571D01*
X137135104Y-90553571D02*
X137135104Y-90858333D01*
X137135104Y-90858333D02*
X137097009Y-90934523D01*
X137097009Y-90934523D02*
X137058914Y-90972618D01*
X137058914Y-90972618D02*
X136982723Y-91010714D01*
X136982723Y-91010714D02*
X136868438Y-91010714D01*
X136868438Y-91010714D02*
X136792247Y-90972618D01*
X136792247Y-90972618D02*
X136754152Y-90934523D01*
X136754152Y-90934523D02*
X136716057Y-90858333D01*
X136716057Y-90858333D02*
X136716057Y-90553571D01*
X136335104Y-91772618D02*
X136335104Y-91315475D01*
X136335104Y-91544047D02*
X137135104Y-91544047D01*
X137135104Y-91544047D02*
X137020819Y-91467856D01*
X137020819Y-91467856D02*
X136944628Y-91391666D01*
X136944628Y-91391666D02*
X136906533Y-91315475D01*
X137135104Y-92039285D02*
X137135104Y-92534523D01*
X137135104Y-92534523D02*
X136830342Y-92267857D01*
X136830342Y-92267857D02*
X136830342Y-92382142D01*
X136830342Y-92382142D02*
X136792247Y-92458333D01*
X136792247Y-92458333D02*
X136754152Y-92496428D01*
X136754152Y-92496428D02*
X136677961Y-92534523D01*
X136677961Y-92534523D02*
X136487485Y-92534523D01*
X136487485Y-92534523D02*
X136411295Y-92496428D01*
X136411295Y-92496428D02*
X136373200Y-92458333D01*
X136373200Y-92458333D02*
X136335104Y-92382142D01*
X136335104Y-92382142D02*
X136335104Y-92153571D01*
X136335104Y-92153571D02*
X136373200Y-92077380D01*
X136373200Y-92077380D02*
X136411295Y-92039285D01*
X137835104Y-112108333D02*
X137263676Y-112108333D01*
X137263676Y-112108333D02*
X137149390Y-112070238D01*
X137149390Y-112070238D02*
X137073200Y-111994047D01*
X137073200Y-111994047D02*
X137035104Y-111879762D01*
X137035104Y-111879762D02*
X137035104Y-111803571D01*
X137568438Y-112832143D02*
X137035104Y-112832143D01*
X137873200Y-112641667D02*
X137301771Y-112451190D01*
X137301771Y-112451190D02*
X137301771Y-112946429D01*
X131188704Y-86839285D02*
X131226800Y-86877381D01*
X131226800Y-86877381D02*
X131264895Y-86991666D01*
X131264895Y-86991666D02*
X131264895Y-87067857D01*
X131264895Y-87067857D02*
X131226800Y-87182143D01*
X131226800Y-87182143D02*
X131150609Y-87258333D01*
X131150609Y-87258333D02*
X131074419Y-87296428D01*
X131074419Y-87296428D02*
X130922038Y-87334524D01*
X130922038Y-87334524D02*
X130807752Y-87334524D01*
X130807752Y-87334524D02*
X130655371Y-87296428D01*
X130655371Y-87296428D02*
X130579180Y-87258333D01*
X130579180Y-87258333D02*
X130502990Y-87182143D01*
X130502990Y-87182143D02*
X130464895Y-87067857D01*
X130464895Y-87067857D02*
X130464895Y-86991666D01*
X130464895Y-86991666D02*
X130502990Y-86877381D01*
X130502990Y-86877381D02*
X130541085Y-86839285D01*
X130541085Y-86534524D02*
X130502990Y-86496428D01*
X130502990Y-86496428D02*
X130464895Y-86420238D01*
X130464895Y-86420238D02*
X130464895Y-86229762D01*
X130464895Y-86229762D02*
X130502990Y-86153571D01*
X130502990Y-86153571D02*
X130541085Y-86115476D01*
X130541085Y-86115476D02*
X130617276Y-86077381D01*
X130617276Y-86077381D02*
X130693466Y-86077381D01*
X130693466Y-86077381D02*
X130807752Y-86115476D01*
X130807752Y-86115476D02*
X131264895Y-86572619D01*
X131264895Y-86572619D02*
X131264895Y-86077381D01*
X130541085Y-85772619D02*
X130502990Y-85734523D01*
X130502990Y-85734523D02*
X130464895Y-85658333D01*
X130464895Y-85658333D02*
X130464895Y-85467857D01*
X130464895Y-85467857D02*
X130502990Y-85391666D01*
X130502990Y-85391666D02*
X130541085Y-85353571D01*
X130541085Y-85353571D02*
X130617276Y-85315476D01*
X130617276Y-85315476D02*
X130693466Y-85315476D01*
X130693466Y-85315476D02*
X130807752Y-85353571D01*
X130807752Y-85353571D02*
X131264895Y-85810714D01*
X131264895Y-85810714D02*
X131264895Y-85315476D01*
X129583333Y-77441390D02*
X129916666Y-77441390D01*
X129916666Y-76917580D02*
X129916666Y-77917580D01*
X129916666Y-77917580D02*
X129440476Y-77917580D01*
X128726190Y-77441390D02*
X128583333Y-77393771D01*
X128583333Y-77393771D02*
X128535714Y-77346152D01*
X128535714Y-77346152D02*
X128488095Y-77250914D01*
X128488095Y-77250914D02*
X128488095Y-77108057D01*
X128488095Y-77108057D02*
X128535714Y-77012819D01*
X128535714Y-77012819D02*
X128583333Y-76965200D01*
X128583333Y-76965200D02*
X128678571Y-76917580D01*
X128678571Y-76917580D02*
X129059523Y-76917580D01*
X129059523Y-76917580D02*
X129059523Y-77917580D01*
X129059523Y-77917580D02*
X128726190Y-77917580D01*
X128726190Y-77917580D02*
X128630952Y-77869961D01*
X128630952Y-77869961D02*
X128583333Y-77822342D01*
X128583333Y-77822342D02*
X128535714Y-77727104D01*
X128535714Y-77727104D02*
X128535714Y-77631866D01*
X128535714Y-77631866D02*
X128583333Y-77536628D01*
X128583333Y-77536628D02*
X128630952Y-77489009D01*
X128630952Y-77489009D02*
X128726190Y-77441390D01*
X128726190Y-77441390D02*
X129059523Y-77441390D01*
X128154761Y-77917580D02*
X127535714Y-77917580D01*
X127535714Y-77917580D02*
X127869047Y-77536628D01*
X127869047Y-77536628D02*
X127726190Y-77536628D01*
X127726190Y-77536628D02*
X127630952Y-77489009D01*
X127630952Y-77489009D02*
X127583333Y-77441390D01*
X127583333Y-77441390D02*
X127535714Y-77346152D01*
X127535714Y-77346152D02*
X127535714Y-77108057D01*
X127535714Y-77108057D02*
X127583333Y-77012819D01*
X127583333Y-77012819D02*
X127630952Y-76965200D01*
X127630952Y-76965200D02*
X127726190Y-76917580D01*
X127726190Y-76917580D02*
X128011904Y-76917580D01*
X128011904Y-76917580D02*
X128107142Y-76965200D01*
X128107142Y-76965200D02*
X128154761Y-77012819D01*
X160461295Y-114541667D02*
X160423200Y-114503571D01*
X160423200Y-114503571D02*
X160385104Y-114389286D01*
X160385104Y-114389286D02*
X160385104Y-114313095D01*
X160385104Y-114313095D02*
X160423200Y-114198809D01*
X160423200Y-114198809D02*
X160499390Y-114122619D01*
X160499390Y-114122619D02*
X160575580Y-114084524D01*
X160575580Y-114084524D02*
X160727961Y-114046428D01*
X160727961Y-114046428D02*
X160842247Y-114046428D01*
X160842247Y-114046428D02*
X160994628Y-114084524D01*
X160994628Y-114084524D02*
X161070819Y-114122619D01*
X161070819Y-114122619D02*
X161147009Y-114198809D01*
X161147009Y-114198809D02*
X161185104Y-114313095D01*
X161185104Y-114313095D02*
X161185104Y-114389286D01*
X161185104Y-114389286D02*
X161147009Y-114503571D01*
X161147009Y-114503571D02*
X161108914Y-114541667D01*
X161108914Y-114846428D02*
X161147009Y-114884524D01*
X161147009Y-114884524D02*
X161185104Y-114960714D01*
X161185104Y-114960714D02*
X161185104Y-115151190D01*
X161185104Y-115151190D02*
X161147009Y-115227381D01*
X161147009Y-115227381D02*
X161108914Y-115265476D01*
X161108914Y-115265476D02*
X161032723Y-115303571D01*
X161032723Y-115303571D02*
X160956533Y-115303571D01*
X160956533Y-115303571D02*
X160842247Y-115265476D01*
X160842247Y-115265476D02*
X160385104Y-114808333D01*
X160385104Y-114808333D02*
X160385104Y-115303571D01*
X159659524Y-96739895D02*
X159659524Y-95939895D01*
X159659524Y-95939895D02*
X159850000Y-95939895D01*
X159850000Y-95939895D02*
X159964286Y-95977990D01*
X159964286Y-95977990D02*
X160040476Y-96054180D01*
X160040476Y-96054180D02*
X160078571Y-96130371D01*
X160078571Y-96130371D02*
X160116667Y-96282752D01*
X160116667Y-96282752D02*
X160116667Y-96397038D01*
X160116667Y-96397038D02*
X160078571Y-96549419D01*
X160078571Y-96549419D02*
X160040476Y-96625609D01*
X160040476Y-96625609D02*
X159964286Y-96701800D01*
X159964286Y-96701800D02*
X159850000Y-96739895D01*
X159850000Y-96739895D02*
X159659524Y-96739895D01*
X160383333Y-95939895D02*
X160878571Y-95939895D01*
X160878571Y-95939895D02*
X160611905Y-96244657D01*
X160611905Y-96244657D02*
X160726190Y-96244657D01*
X160726190Y-96244657D02*
X160802381Y-96282752D01*
X160802381Y-96282752D02*
X160840476Y-96320847D01*
X160840476Y-96320847D02*
X160878571Y-96397038D01*
X160878571Y-96397038D02*
X160878571Y-96587514D01*
X160878571Y-96587514D02*
X160840476Y-96663704D01*
X160840476Y-96663704D02*
X160802381Y-96701800D01*
X160802381Y-96701800D02*
X160726190Y-96739895D01*
X160726190Y-96739895D02*
X160497619Y-96739895D01*
X160497619Y-96739895D02*
X160421428Y-96701800D01*
X160421428Y-96701800D02*
X160383333Y-96663704D01*
X118116667Y-97213704D02*
X118078571Y-97251800D01*
X118078571Y-97251800D02*
X117964286Y-97289895D01*
X117964286Y-97289895D02*
X117888095Y-97289895D01*
X117888095Y-97289895D02*
X117773809Y-97251800D01*
X117773809Y-97251800D02*
X117697619Y-97175609D01*
X117697619Y-97175609D02*
X117659524Y-97099419D01*
X117659524Y-97099419D02*
X117621428Y-96947038D01*
X117621428Y-96947038D02*
X117621428Y-96832752D01*
X117621428Y-96832752D02*
X117659524Y-96680371D01*
X117659524Y-96680371D02*
X117697619Y-96604180D01*
X117697619Y-96604180D02*
X117773809Y-96527990D01*
X117773809Y-96527990D02*
X117888095Y-96489895D01*
X117888095Y-96489895D02*
X117964286Y-96489895D01*
X117964286Y-96489895D02*
X118078571Y-96527990D01*
X118078571Y-96527990D02*
X118116667Y-96566085D01*
X118802381Y-96489895D02*
X118650000Y-96489895D01*
X118650000Y-96489895D02*
X118573809Y-96527990D01*
X118573809Y-96527990D02*
X118535714Y-96566085D01*
X118535714Y-96566085D02*
X118459524Y-96680371D01*
X118459524Y-96680371D02*
X118421428Y-96832752D01*
X118421428Y-96832752D02*
X118421428Y-97137514D01*
X118421428Y-97137514D02*
X118459524Y-97213704D01*
X118459524Y-97213704D02*
X118497619Y-97251800D01*
X118497619Y-97251800D02*
X118573809Y-97289895D01*
X118573809Y-97289895D02*
X118726190Y-97289895D01*
X118726190Y-97289895D02*
X118802381Y-97251800D01*
X118802381Y-97251800D02*
X118840476Y-97213704D01*
X118840476Y-97213704D02*
X118878571Y-97137514D01*
X118878571Y-97137514D02*
X118878571Y-96947038D01*
X118878571Y-96947038D02*
X118840476Y-96870847D01*
X118840476Y-96870847D02*
X118802381Y-96832752D01*
X118802381Y-96832752D02*
X118726190Y-96794657D01*
X118726190Y-96794657D02*
X118573809Y-96794657D01*
X118573809Y-96794657D02*
X118497619Y-96832752D01*
X118497619Y-96832752D02*
X118459524Y-96870847D01*
X118459524Y-96870847D02*
X118421428Y-96947038D01*
X152934895Y-87258332D02*
X152553942Y-87524999D01*
X152934895Y-87715475D02*
X152134895Y-87715475D01*
X152134895Y-87715475D02*
X152134895Y-87410713D01*
X152134895Y-87410713D02*
X152172990Y-87334523D01*
X152172990Y-87334523D02*
X152211085Y-87296428D01*
X152211085Y-87296428D02*
X152287276Y-87258332D01*
X152287276Y-87258332D02*
X152401561Y-87258332D01*
X152401561Y-87258332D02*
X152477752Y-87296428D01*
X152477752Y-87296428D02*
X152515847Y-87334523D01*
X152515847Y-87334523D02*
X152553942Y-87410713D01*
X152553942Y-87410713D02*
X152553942Y-87715475D01*
X152934895Y-86496428D02*
X152934895Y-86953571D01*
X152934895Y-86724999D02*
X152134895Y-86724999D01*
X152134895Y-86724999D02*
X152249180Y-86801190D01*
X152249180Y-86801190D02*
X152325371Y-86877380D01*
X152325371Y-86877380D02*
X152363466Y-86953571D01*
X158733333Y-120939895D02*
X158733333Y-121511323D01*
X158733333Y-121511323D02*
X158695238Y-121625609D01*
X158695238Y-121625609D02*
X158619047Y-121701800D01*
X158619047Y-121701800D02*
X158504762Y-121739895D01*
X158504762Y-121739895D02*
X158428571Y-121739895D01*
X159495238Y-120939895D02*
X159114286Y-120939895D01*
X159114286Y-120939895D02*
X159076190Y-121320847D01*
X159076190Y-121320847D02*
X159114286Y-121282752D01*
X159114286Y-121282752D02*
X159190476Y-121244657D01*
X159190476Y-121244657D02*
X159380952Y-121244657D01*
X159380952Y-121244657D02*
X159457143Y-121282752D01*
X159457143Y-121282752D02*
X159495238Y-121320847D01*
X159495238Y-121320847D02*
X159533333Y-121397038D01*
X159533333Y-121397038D02*
X159533333Y-121587514D01*
X159533333Y-121587514D02*
X159495238Y-121663704D01*
X159495238Y-121663704D02*
X159457143Y-121701800D01*
X159457143Y-121701800D02*
X159380952Y-121739895D01*
X159380952Y-121739895D02*
X159190476Y-121739895D01*
X159190476Y-121739895D02*
X159114286Y-121701800D01*
X159114286Y-121701800D02*
X159076190Y-121663704D01*
X129233333Y-89731390D02*
X129566666Y-89731390D01*
X129566666Y-89207580D02*
X129566666Y-90207580D01*
X129566666Y-90207580D02*
X129090476Y-90207580D01*
X128376190Y-89731390D02*
X128233333Y-89683771D01*
X128233333Y-89683771D02*
X128185714Y-89636152D01*
X128185714Y-89636152D02*
X128138095Y-89540914D01*
X128138095Y-89540914D02*
X128138095Y-89398057D01*
X128138095Y-89398057D02*
X128185714Y-89302819D01*
X128185714Y-89302819D02*
X128233333Y-89255200D01*
X128233333Y-89255200D02*
X128328571Y-89207580D01*
X128328571Y-89207580D02*
X128709523Y-89207580D01*
X128709523Y-89207580D02*
X128709523Y-90207580D01*
X128709523Y-90207580D02*
X128376190Y-90207580D01*
X128376190Y-90207580D02*
X128280952Y-90159961D01*
X128280952Y-90159961D02*
X128233333Y-90112342D01*
X128233333Y-90112342D02*
X128185714Y-90017104D01*
X128185714Y-90017104D02*
X128185714Y-89921866D01*
X128185714Y-89921866D02*
X128233333Y-89826628D01*
X128233333Y-89826628D02*
X128280952Y-89779009D01*
X128280952Y-89779009D02*
X128376190Y-89731390D01*
X128376190Y-89731390D02*
X128709523Y-89731390D01*
X127185714Y-89207580D02*
X127757142Y-89207580D01*
X127471428Y-89207580D02*
X127471428Y-90207580D01*
X127471428Y-90207580D02*
X127566666Y-90064723D01*
X127566666Y-90064723D02*
X127661904Y-89969485D01*
X127661904Y-89969485D02*
X127757142Y-89921866D01*
X158864895Y-107508333D02*
X158864895Y-107889285D01*
X158864895Y-107889285D02*
X158064895Y-107889285D01*
X158864895Y-106822619D02*
X158864895Y-107279762D01*
X158864895Y-107051190D02*
X158064895Y-107051190D01*
X158064895Y-107051190D02*
X158179180Y-107127381D01*
X158179180Y-107127381D02*
X158255371Y-107203571D01*
X158255371Y-107203571D02*
X158293466Y-107279762D01*
X136685104Y-120515476D02*
X136037485Y-120515476D01*
X136037485Y-120515476D02*
X135961295Y-120553571D01*
X135961295Y-120553571D02*
X135923200Y-120591666D01*
X135923200Y-120591666D02*
X135885104Y-120667857D01*
X135885104Y-120667857D02*
X135885104Y-120820238D01*
X135885104Y-120820238D02*
X135923200Y-120896428D01*
X135923200Y-120896428D02*
X135961295Y-120934523D01*
X135961295Y-120934523D02*
X136037485Y-120972619D01*
X136037485Y-120972619D02*
X136685104Y-120972619D01*
X136685104Y-121696428D02*
X136685104Y-121544047D01*
X136685104Y-121544047D02*
X136647009Y-121467856D01*
X136647009Y-121467856D02*
X136608914Y-121429761D01*
X136608914Y-121429761D02*
X136494628Y-121353571D01*
X136494628Y-121353571D02*
X136342247Y-121315475D01*
X136342247Y-121315475D02*
X136037485Y-121315475D01*
X136037485Y-121315475D02*
X135961295Y-121353571D01*
X135961295Y-121353571D02*
X135923200Y-121391666D01*
X135923200Y-121391666D02*
X135885104Y-121467856D01*
X135885104Y-121467856D02*
X135885104Y-121620237D01*
X135885104Y-121620237D02*
X135923200Y-121696428D01*
X135923200Y-121696428D02*
X135961295Y-121734523D01*
X135961295Y-121734523D02*
X136037485Y-121772618D01*
X136037485Y-121772618D02*
X136227961Y-121772618D01*
X136227961Y-121772618D02*
X136304152Y-121734523D01*
X136304152Y-121734523D02*
X136342247Y-121696428D01*
X136342247Y-121696428D02*
X136380342Y-121620237D01*
X136380342Y-121620237D02*
X136380342Y-121467856D01*
X136380342Y-121467856D02*
X136342247Y-121391666D01*
X136342247Y-121391666D02*
X136304152Y-121353571D01*
X136304152Y-121353571D02*
X136227961Y-121315475D01*
X123304895Y-80064285D02*
X123304895Y-80445237D01*
X123304895Y-80445237D02*
X122504895Y-80445237D01*
X123266800Y-79835714D02*
X123304895Y-79721428D01*
X123304895Y-79721428D02*
X123304895Y-79530952D01*
X123304895Y-79530952D02*
X123266800Y-79454761D01*
X123266800Y-79454761D02*
X123228704Y-79416666D01*
X123228704Y-79416666D02*
X123152514Y-79378571D01*
X123152514Y-79378571D02*
X123076323Y-79378571D01*
X123076323Y-79378571D02*
X123000133Y-79416666D01*
X123000133Y-79416666D02*
X122962038Y-79454761D01*
X122962038Y-79454761D02*
X122923942Y-79530952D01*
X122923942Y-79530952D02*
X122885847Y-79683333D01*
X122885847Y-79683333D02*
X122847752Y-79759523D01*
X122847752Y-79759523D02*
X122809657Y-79797618D01*
X122809657Y-79797618D02*
X122733466Y-79835714D01*
X122733466Y-79835714D02*
X122657276Y-79835714D01*
X122657276Y-79835714D02*
X122581085Y-79797618D01*
X122581085Y-79797618D02*
X122542990Y-79759523D01*
X122542990Y-79759523D02*
X122504895Y-79683333D01*
X122504895Y-79683333D02*
X122504895Y-79492856D01*
X122504895Y-79492856D02*
X122542990Y-79378571D01*
X123304895Y-78616666D02*
X123304895Y-79073809D01*
X123304895Y-78845237D02*
X122504895Y-78845237D01*
X122504895Y-78845237D02*
X122619180Y-78921428D01*
X122619180Y-78921428D02*
X122695371Y-78997618D01*
X122695371Y-78997618D02*
X122733466Y-79073809D01*
X160385714Y-79213704D02*
X160347618Y-79251800D01*
X160347618Y-79251800D02*
X160233333Y-79289895D01*
X160233333Y-79289895D02*
X160157142Y-79289895D01*
X160157142Y-79289895D02*
X160042856Y-79251800D01*
X160042856Y-79251800D02*
X159966666Y-79175609D01*
X159966666Y-79175609D02*
X159928571Y-79099419D01*
X159928571Y-79099419D02*
X159890475Y-78947038D01*
X159890475Y-78947038D02*
X159890475Y-78832752D01*
X159890475Y-78832752D02*
X159928571Y-78680371D01*
X159928571Y-78680371D02*
X159966666Y-78604180D01*
X159966666Y-78604180D02*
X160042856Y-78527990D01*
X160042856Y-78527990D02*
X160157142Y-78489895D01*
X160157142Y-78489895D02*
X160233333Y-78489895D01*
X160233333Y-78489895D02*
X160347618Y-78527990D01*
X160347618Y-78527990D02*
X160385714Y-78566085D01*
X161147618Y-79289895D02*
X160690475Y-79289895D01*
X160919047Y-79289895D02*
X160919047Y-78489895D01*
X160919047Y-78489895D02*
X160842856Y-78604180D01*
X160842856Y-78604180D02*
X160766666Y-78680371D01*
X160766666Y-78680371D02*
X160690475Y-78718466D01*
X161414285Y-78489895D02*
X161947619Y-78489895D01*
X161947619Y-78489895D02*
X161604761Y-79289895D01*
D11*
X152607142Y-75734580D02*
X152559523Y-75782200D01*
X152559523Y-75782200D02*
X152416666Y-75829819D01*
X152416666Y-75829819D02*
X152321428Y-75829819D01*
X152321428Y-75829819D02*
X152178571Y-75782200D01*
X152178571Y-75782200D02*
X152083333Y-75686961D01*
X152083333Y-75686961D02*
X152035714Y-75591723D01*
X152035714Y-75591723D02*
X151988095Y-75401247D01*
X151988095Y-75401247D02*
X151988095Y-75258390D01*
X151988095Y-75258390D02*
X152035714Y-75067914D01*
X152035714Y-75067914D02*
X152083333Y-74972676D01*
X152083333Y-74972676D02*
X152178571Y-74877438D01*
X152178571Y-74877438D02*
X152321428Y-74829819D01*
X152321428Y-74829819D02*
X152416666Y-74829819D01*
X152416666Y-74829819D02*
X152559523Y-74877438D01*
X152559523Y-74877438D02*
X152607142Y-74925057D01*
X152988095Y-74925057D02*
X153035714Y-74877438D01*
X153035714Y-74877438D02*
X153130952Y-74829819D01*
X153130952Y-74829819D02*
X153369047Y-74829819D01*
X153369047Y-74829819D02*
X153464285Y-74877438D01*
X153464285Y-74877438D02*
X153511904Y-74925057D01*
X153511904Y-74925057D02*
X153559523Y-75020295D01*
X153559523Y-75020295D02*
X153559523Y-75115533D01*
X153559523Y-75115533D02*
X153511904Y-75258390D01*
X153511904Y-75258390D02*
X152940476Y-75829819D01*
X152940476Y-75829819D02*
X153559523Y-75829819D01*
X154416666Y-74829819D02*
X154226190Y-74829819D01*
X154226190Y-74829819D02*
X154130952Y-74877438D01*
X154130952Y-74877438D02*
X154083333Y-74925057D01*
X154083333Y-74925057D02*
X153988095Y-75067914D01*
X153988095Y-75067914D02*
X153940476Y-75258390D01*
X153940476Y-75258390D02*
X153940476Y-75639342D01*
X153940476Y-75639342D02*
X153988095Y-75734580D01*
X153988095Y-75734580D02*
X154035714Y-75782200D01*
X154035714Y-75782200D02*
X154130952Y-75829819D01*
X154130952Y-75829819D02*
X154321428Y-75829819D01*
X154321428Y-75829819D02*
X154416666Y-75782200D01*
X154416666Y-75782200D02*
X154464285Y-75734580D01*
X154464285Y-75734580D02*
X154511904Y-75639342D01*
X154511904Y-75639342D02*
X154511904Y-75401247D01*
X154511904Y-75401247D02*
X154464285Y-75306009D01*
X154464285Y-75306009D02*
X154416666Y-75258390D01*
X154416666Y-75258390D02*
X154321428Y-75210771D01*
X154321428Y-75210771D02*
X154130952Y-75210771D01*
X154130952Y-75210771D02*
X154035714Y-75258390D01*
X154035714Y-75258390D02*
X153988095Y-75306009D01*
X153988095Y-75306009D02*
X153940476Y-75401247D01*
D10*
X147864895Y-84658332D02*
X147483942Y-84924999D01*
X147864895Y-85115475D02*
X147064895Y-85115475D01*
X147064895Y-85115475D02*
X147064895Y-84810713D01*
X147064895Y-84810713D02*
X147102990Y-84734523D01*
X147102990Y-84734523D02*
X147141085Y-84696428D01*
X147141085Y-84696428D02*
X147217276Y-84658332D01*
X147217276Y-84658332D02*
X147331561Y-84658332D01*
X147331561Y-84658332D02*
X147407752Y-84696428D01*
X147407752Y-84696428D02*
X147445847Y-84734523D01*
X147445847Y-84734523D02*
X147483942Y-84810713D01*
X147483942Y-84810713D02*
X147483942Y-85115475D01*
X147064895Y-84391666D02*
X147064895Y-83858332D01*
X147064895Y-83858332D02*
X147864895Y-84201190D01*
X145566667Y-97813704D02*
X145528571Y-97851800D01*
X145528571Y-97851800D02*
X145414286Y-97889895D01*
X145414286Y-97889895D02*
X145338095Y-97889895D01*
X145338095Y-97889895D02*
X145223809Y-97851800D01*
X145223809Y-97851800D02*
X145147619Y-97775609D01*
X145147619Y-97775609D02*
X145109524Y-97699419D01*
X145109524Y-97699419D02*
X145071428Y-97547038D01*
X145071428Y-97547038D02*
X145071428Y-97432752D01*
X145071428Y-97432752D02*
X145109524Y-97280371D01*
X145109524Y-97280371D02*
X145147619Y-97204180D01*
X145147619Y-97204180D02*
X145223809Y-97127990D01*
X145223809Y-97127990D02*
X145338095Y-97089895D01*
X145338095Y-97089895D02*
X145414286Y-97089895D01*
X145414286Y-97089895D02*
X145528571Y-97127990D01*
X145528571Y-97127990D02*
X145566667Y-97166085D01*
X146328571Y-97889895D02*
X145871428Y-97889895D01*
X146100000Y-97889895D02*
X146100000Y-97089895D01*
X146100000Y-97089895D02*
X146023809Y-97204180D01*
X146023809Y-97204180D02*
X145947619Y-97280371D01*
X145947619Y-97280371D02*
X145871428Y-97318466D01*
X136185714Y-82289895D02*
X135919047Y-81908942D01*
X135728571Y-82289895D02*
X135728571Y-81489895D01*
X135728571Y-81489895D02*
X136033333Y-81489895D01*
X136033333Y-81489895D02*
X136109523Y-81527990D01*
X136109523Y-81527990D02*
X136147618Y-81566085D01*
X136147618Y-81566085D02*
X136185714Y-81642276D01*
X136185714Y-81642276D02*
X136185714Y-81756561D01*
X136185714Y-81756561D02*
X136147618Y-81832752D01*
X136147618Y-81832752D02*
X136109523Y-81870847D01*
X136109523Y-81870847D02*
X136033333Y-81908942D01*
X136033333Y-81908942D02*
X135728571Y-81908942D01*
X136947618Y-82289895D02*
X136490475Y-82289895D01*
X136719047Y-82289895D02*
X136719047Y-81489895D01*
X136719047Y-81489895D02*
X136642856Y-81604180D01*
X136642856Y-81604180D02*
X136566666Y-81680371D01*
X136566666Y-81680371D02*
X136490475Y-81718466D01*
X137633333Y-81756561D02*
X137633333Y-82289895D01*
X137442857Y-81451800D02*
X137252380Y-82023228D01*
X137252380Y-82023228D02*
X137747619Y-82023228D01*
X131566667Y-77489895D02*
X131300000Y-77108942D01*
X131109524Y-77489895D02*
X131109524Y-76689895D01*
X131109524Y-76689895D02*
X131414286Y-76689895D01*
X131414286Y-76689895D02*
X131490476Y-76727990D01*
X131490476Y-76727990D02*
X131528571Y-76766085D01*
X131528571Y-76766085D02*
X131566667Y-76842276D01*
X131566667Y-76842276D02*
X131566667Y-76956561D01*
X131566667Y-76956561D02*
X131528571Y-77032752D01*
X131528571Y-77032752D02*
X131490476Y-77070847D01*
X131490476Y-77070847D02*
X131414286Y-77108942D01*
X131414286Y-77108942D02*
X131109524Y-77108942D01*
X132023809Y-77032752D02*
X131947619Y-76994657D01*
X131947619Y-76994657D02*
X131909524Y-76956561D01*
X131909524Y-76956561D02*
X131871428Y-76880371D01*
X131871428Y-76880371D02*
X131871428Y-76842276D01*
X131871428Y-76842276D02*
X131909524Y-76766085D01*
X131909524Y-76766085D02*
X131947619Y-76727990D01*
X131947619Y-76727990D02*
X132023809Y-76689895D01*
X132023809Y-76689895D02*
X132176190Y-76689895D01*
X132176190Y-76689895D02*
X132252381Y-76727990D01*
X132252381Y-76727990D02*
X132290476Y-76766085D01*
X132290476Y-76766085D02*
X132328571Y-76842276D01*
X132328571Y-76842276D02*
X132328571Y-76880371D01*
X132328571Y-76880371D02*
X132290476Y-76956561D01*
X132290476Y-76956561D02*
X132252381Y-76994657D01*
X132252381Y-76994657D02*
X132176190Y-77032752D01*
X132176190Y-77032752D02*
X132023809Y-77032752D01*
X132023809Y-77032752D02*
X131947619Y-77070847D01*
X131947619Y-77070847D02*
X131909524Y-77108942D01*
X131909524Y-77108942D02*
X131871428Y-77185133D01*
X131871428Y-77185133D02*
X131871428Y-77337514D01*
X131871428Y-77337514D02*
X131909524Y-77413704D01*
X131909524Y-77413704D02*
X131947619Y-77451800D01*
X131947619Y-77451800D02*
X132023809Y-77489895D01*
X132023809Y-77489895D02*
X132176190Y-77489895D01*
X132176190Y-77489895D02*
X132252381Y-77451800D01*
X132252381Y-77451800D02*
X132290476Y-77413704D01*
X132290476Y-77413704D02*
X132328571Y-77337514D01*
X132328571Y-77337514D02*
X132328571Y-77185133D01*
X132328571Y-77185133D02*
X132290476Y-77108942D01*
X132290476Y-77108942D02*
X132252381Y-77070847D01*
X132252381Y-77070847D02*
X132176190Y-77032752D01*
X159814895Y-101891666D02*
X160386323Y-101891666D01*
X160386323Y-101891666D02*
X160500609Y-101929761D01*
X160500609Y-101929761D02*
X160576800Y-102005952D01*
X160576800Y-102005952D02*
X160614895Y-102120237D01*
X160614895Y-102120237D02*
X160614895Y-102196428D01*
X159814895Y-101586904D02*
X159814895Y-101091666D01*
X159814895Y-101091666D02*
X160119657Y-101358332D01*
X160119657Y-101358332D02*
X160119657Y-101244047D01*
X160119657Y-101244047D02*
X160157752Y-101167856D01*
X160157752Y-101167856D02*
X160195847Y-101129761D01*
X160195847Y-101129761D02*
X160272038Y-101091666D01*
X160272038Y-101091666D02*
X160462514Y-101091666D01*
X160462514Y-101091666D02*
X160538704Y-101129761D01*
X160538704Y-101129761D02*
X160576800Y-101167856D01*
X160576800Y-101167856D02*
X160614895Y-101244047D01*
X160614895Y-101244047D02*
X160614895Y-101472618D01*
X160614895Y-101472618D02*
X160576800Y-101548809D01*
X160576800Y-101548809D02*
X160538704Y-101586904D01*
X119616667Y-93213704D02*
X119578571Y-93251800D01*
X119578571Y-93251800D02*
X119464286Y-93289895D01*
X119464286Y-93289895D02*
X119388095Y-93289895D01*
X119388095Y-93289895D02*
X119273809Y-93251800D01*
X119273809Y-93251800D02*
X119197619Y-93175609D01*
X119197619Y-93175609D02*
X119159524Y-93099419D01*
X119159524Y-93099419D02*
X119121428Y-92947038D01*
X119121428Y-92947038D02*
X119121428Y-92832752D01*
X119121428Y-92832752D02*
X119159524Y-92680371D01*
X119159524Y-92680371D02*
X119197619Y-92604180D01*
X119197619Y-92604180D02*
X119273809Y-92527990D01*
X119273809Y-92527990D02*
X119388095Y-92489895D01*
X119388095Y-92489895D02*
X119464286Y-92489895D01*
X119464286Y-92489895D02*
X119578571Y-92527990D01*
X119578571Y-92527990D02*
X119616667Y-92566085D01*
X119883333Y-92489895D02*
X120416667Y-92489895D01*
X120416667Y-92489895D02*
X120073809Y-93289895D01*
X134785714Y-89689895D02*
X134519047Y-89308942D01*
X134328571Y-89689895D02*
X134328571Y-88889895D01*
X134328571Y-88889895D02*
X134633333Y-88889895D01*
X134633333Y-88889895D02*
X134709523Y-88927990D01*
X134709523Y-88927990D02*
X134747618Y-88966085D01*
X134747618Y-88966085D02*
X134785714Y-89042276D01*
X134785714Y-89042276D02*
X134785714Y-89156561D01*
X134785714Y-89156561D02*
X134747618Y-89232752D01*
X134747618Y-89232752D02*
X134709523Y-89270847D01*
X134709523Y-89270847D02*
X134633333Y-89308942D01*
X134633333Y-89308942D02*
X134328571Y-89308942D01*
X135547618Y-89689895D02*
X135090475Y-89689895D01*
X135319047Y-89689895D02*
X135319047Y-88889895D01*
X135319047Y-88889895D02*
X135242856Y-89004180D01*
X135242856Y-89004180D02*
X135166666Y-89080371D01*
X135166666Y-89080371D02*
X135090475Y-89118466D01*
X136271428Y-88889895D02*
X135890476Y-88889895D01*
X135890476Y-88889895D02*
X135852380Y-89270847D01*
X135852380Y-89270847D02*
X135890476Y-89232752D01*
X135890476Y-89232752D02*
X135966666Y-89194657D01*
X135966666Y-89194657D02*
X136157142Y-89194657D01*
X136157142Y-89194657D02*
X136233333Y-89232752D01*
X136233333Y-89232752D02*
X136271428Y-89270847D01*
X136271428Y-89270847D02*
X136309523Y-89347038D01*
X136309523Y-89347038D02*
X136309523Y-89537514D01*
X136309523Y-89537514D02*
X136271428Y-89613704D01*
X136271428Y-89613704D02*
X136233333Y-89651800D01*
X136233333Y-89651800D02*
X136157142Y-89689895D01*
X136157142Y-89689895D02*
X135966666Y-89689895D01*
X135966666Y-89689895D02*
X135890476Y-89651800D01*
X135890476Y-89651800D02*
X135852380Y-89613704D01*
X164611295Y-89410714D02*
X164573200Y-89372618D01*
X164573200Y-89372618D02*
X164535104Y-89258333D01*
X164535104Y-89258333D02*
X164535104Y-89182142D01*
X164535104Y-89182142D02*
X164573200Y-89067856D01*
X164573200Y-89067856D02*
X164649390Y-88991666D01*
X164649390Y-88991666D02*
X164725580Y-88953571D01*
X164725580Y-88953571D02*
X164877961Y-88915475D01*
X164877961Y-88915475D02*
X164992247Y-88915475D01*
X164992247Y-88915475D02*
X165144628Y-88953571D01*
X165144628Y-88953571D02*
X165220819Y-88991666D01*
X165220819Y-88991666D02*
X165297009Y-89067856D01*
X165297009Y-89067856D02*
X165335104Y-89182142D01*
X165335104Y-89182142D02*
X165335104Y-89258333D01*
X165335104Y-89258333D02*
X165297009Y-89372618D01*
X165297009Y-89372618D02*
X165258914Y-89410714D01*
X164535104Y-90172618D02*
X164535104Y-89715475D01*
X164535104Y-89944047D02*
X165335104Y-89944047D01*
X165335104Y-89944047D02*
X165220819Y-89867856D01*
X165220819Y-89867856D02*
X165144628Y-89791666D01*
X165144628Y-89791666D02*
X165106533Y-89715475D01*
X165335104Y-90439285D02*
X165335104Y-90934523D01*
X165335104Y-90934523D02*
X165030342Y-90667857D01*
X165030342Y-90667857D02*
X165030342Y-90782142D01*
X165030342Y-90782142D02*
X164992247Y-90858333D01*
X164992247Y-90858333D02*
X164954152Y-90896428D01*
X164954152Y-90896428D02*
X164877961Y-90934523D01*
X164877961Y-90934523D02*
X164687485Y-90934523D01*
X164687485Y-90934523D02*
X164611295Y-90896428D01*
X164611295Y-90896428D02*
X164573200Y-90858333D01*
X164573200Y-90858333D02*
X164535104Y-90782142D01*
X164535104Y-90782142D02*
X164535104Y-90553571D01*
X164535104Y-90553571D02*
X164573200Y-90477380D01*
X164573200Y-90477380D02*
X164611295Y-90439285D01*
D11*
X137859580Y-74517857D02*
X137907200Y-74565476D01*
X137907200Y-74565476D02*
X137954819Y-74708333D01*
X137954819Y-74708333D02*
X137954819Y-74803571D01*
X137954819Y-74803571D02*
X137907200Y-74946428D01*
X137907200Y-74946428D02*
X137811961Y-75041666D01*
X137811961Y-75041666D02*
X137716723Y-75089285D01*
X137716723Y-75089285D02*
X137526247Y-75136904D01*
X137526247Y-75136904D02*
X137383390Y-75136904D01*
X137383390Y-75136904D02*
X137192914Y-75089285D01*
X137192914Y-75089285D02*
X137097676Y-75041666D01*
X137097676Y-75041666D02*
X137002438Y-74946428D01*
X137002438Y-74946428D02*
X136954819Y-74803571D01*
X136954819Y-74803571D02*
X136954819Y-74708333D01*
X136954819Y-74708333D02*
X137002438Y-74565476D01*
X137002438Y-74565476D02*
X137050057Y-74517857D01*
X137050057Y-74136904D02*
X137002438Y-74089285D01*
X137002438Y-74089285D02*
X136954819Y-73994047D01*
X136954819Y-73994047D02*
X136954819Y-73755952D01*
X136954819Y-73755952D02*
X137002438Y-73660714D01*
X137002438Y-73660714D02*
X137050057Y-73613095D01*
X137050057Y-73613095D02*
X137145295Y-73565476D01*
X137145295Y-73565476D02*
X137240533Y-73565476D01*
X137240533Y-73565476D02*
X137383390Y-73613095D01*
X137383390Y-73613095D02*
X137954819Y-74184523D01*
X137954819Y-74184523D02*
X137954819Y-73565476D01*
X136954819Y-72660714D02*
X136954819Y-73136904D01*
X136954819Y-73136904D02*
X137431009Y-73184523D01*
X137431009Y-73184523D02*
X137383390Y-73136904D01*
X137383390Y-73136904D02*
X137335771Y-73041666D01*
X137335771Y-73041666D02*
X137335771Y-72803571D01*
X137335771Y-72803571D02*
X137383390Y-72708333D01*
X137383390Y-72708333D02*
X137431009Y-72660714D01*
X137431009Y-72660714D02*
X137526247Y-72613095D01*
X137526247Y-72613095D02*
X137764342Y-72613095D01*
X137764342Y-72613095D02*
X137859580Y-72660714D01*
X137859580Y-72660714D02*
X137907200Y-72708333D01*
X137907200Y-72708333D02*
X137954819Y-72803571D01*
X137954819Y-72803571D02*
X137954819Y-73041666D01*
X137954819Y-73041666D02*
X137907200Y-73136904D01*
X137907200Y-73136904D02*
X137859580Y-73184523D01*
D10*
X132064895Y-81839285D02*
X131683942Y-82105952D01*
X132064895Y-82296428D02*
X131264895Y-82296428D01*
X131264895Y-82296428D02*
X131264895Y-81991666D01*
X131264895Y-81991666D02*
X131302990Y-81915476D01*
X131302990Y-81915476D02*
X131341085Y-81877381D01*
X131341085Y-81877381D02*
X131417276Y-81839285D01*
X131417276Y-81839285D02*
X131531561Y-81839285D01*
X131531561Y-81839285D02*
X131607752Y-81877381D01*
X131607752Y-81877381D02*
X131645847Y-81915476D01*
X131645847Y-81915476D02*
X131683942Y-81991666D01*
X131683942Y-81991666D02*
X131683942Y-82296428D01*
X132064895Y-81077381D02*
X132064895Y-81534524D01*
X132064895Y-81305952D02*
X131264895Y-81305952D01*
X131264895Y-81305952D02*
X131379180Y-81382143D01*
X131379180Y-81382143D02*
X131455371Y-81458333D01*
X131455371Y-81458333D02*
X131493466Y-81534524D01*
X131264895Y-80391666D02*
X131264895Y-80544047D01*
X131264895Y-80544047D02*
X131302990Y-80620238D01*
X131302990Y-80620238D02*
X131341085Y-80658333D01*
X131341085Y-80658333D02*
X131455371Y-80734523D01*
X131455371Y-80734523D02*
X131607752Y-80772619D01*
X131607752Y-80772619D02*
X131912514Y-80772619D01*
X131912514Y-80772619D02*
X131988704Y-80734523D01*
X131988704Y-80734523D02*
X132026800Y-80696428D01*
X132026800Y-80696428D02*
X132064895Y-80620238D01*
X132064895Y-80620238D02*
X132064895Y-80467857D01*
X132064895Y-80467857D02*
X132026800Y-80391666D01*
X132026800Y-80391666D02*
X131988704Y-80353571D01*
X131988704Y-80353571D02*
X131912514Y-80315476D01*
X131912514Y-80315476D02*
X131722038Y-80315476D01*
X131722038Y-80315476D02*
X131645847Y-80353571D01*
X131645847Y-80353571D02*
X131607752Y-80391666D01*
X131607752Y-80391666D02*
X131569657Y-80467857D01*
X131569657Y-80467857D02*
X131569657Y-80620238D01*
X131569657Y-80620238D02*
X131607752Y-80696428D01*
X131607752Y-80696428D02*
X131645847Y-80734523D01*
X131645847Y-80734523D02*
X131722038Y-80772619D01*
X157788704Y-76458332D02*
X157826800Y-76496428D01*
X157826800Y-76496428D02*
X157864895Y-76610713D01*
X157864895Y-76610713D02*
X157864895Y-76686904D01*
X157864895Y-76686904D02*
X157826800Y-76801190D01*
X157826800Y-76801190D02*
X157750609Y-76877380D01*
X157750609Y-76877380D02*
X157674419Y-76915475D01*
X157674419Y-76915475D02*
X157522038Y-76953571D01*
X157522038Y-76953571D02*
X157407752Y-76953571D01*
X157407752Y-76953571D02*
X157255371Y-76915475D01*
X157255371Y-76915475D02*
X157179180Y-76877380D01*
X157179180Y-76877380D02*
X157102990Y-76801190D01*
X157102990Y-76801190D02*
X157064895Y-76686904D01*
X157064895Y-76686904D02*
X157064895Y-76610713D01*
X157064895Y-76610713D02*
X157102990Y-76496428D01*
X157102990Y-76496428D02*
X157141085Y-76458332D01*
X157864895Y-76077380D02*
X157864895Y-75924999D01*
X157864895Y-75924999D02*
X157826800Y-75848809D01*
X157826800Y-75848809D02*
X157788704Y-75810713D01*
X157788704Y-75810713D02*
X157674419Y-75734523D01*
X157674419Y-75734523D02*
X157522038Y-75696428D01*
X157522038Y-75696428D02*
X157217276Y-75696428D01*
X157217276Y-75696428D02*
X157141085Y-75734523D01*
X157141085Y-75734523D02*
X157102990Y-75772618D01*
X157102990Y-75772618D02*
X157064895Y-75848809D01*
X157064895Y-75848809D02*
X157064895Y-76001190D01*
X157064895Y-76001190D02*
X157102990Y-76077380D01*
X157102990Y-76077380D02*
X157141085Y-76115475D01*
X157141085Y-76115475D02*
X157217276Y-76153571D01*
X157217276Y-76153571D02*
X157407752Y-76153571D01*
X157407752Y-76153571D02*
X157483942Y-76115475D01*
X157483942Y-76115475D02*
X157522038Y-76077380D01*
X157522038Y-76077380D02*
X157560133Y-76001190D01*
X157560133Y-76001190D02*
X157560133Y-75848809D01*
X157560133Y-75848809D02*
X157522038Y-75772618D01*
X157522038Y-75772618D02*
X157483942Y-75734523D01*
X157483942Y-75734523D02*
X157407752Y-75696428D01*
X157416666Y-73308609D02*
X157083333Y-73308609D01*
X157083333Y-73832419D02*
X157083333Y-72832419D01*
X157083333Y-72832419D02*
X157559523Y-72832419D01*
X158273809Y-73308609D02*
X158416666Y-73356228D01*
X158416666Y-73356228D02*
X158464285Y-73403847D01*
X158464285Y-73403847D02*
X158511904Y-73499085D01*
X158511904Y-73499085D02*
X158511904Y-73641942D01*
X158511904Y-73641942D02*
X158464285Y-73737180D01*
X158464285Y-73737180D02*
X158416666Y-73784800D01*
X158416666Y-73784800D02*
X158321428Y-73832419D01*
X158321428Y-73832419D02*
X157940476Y-73832419D01*
X157940476Y-73832419D02*
X157940476Y-72832419D01*
X157940476Y-72832419D02*
X158273809Y-72832419D01*
X158273809Y-72832419D02*
X158369047Y-72880038D01*
X158369047Y-72880038D02*
X158416666Y-72927657D01*
X158416666Y-72927657D02*
X158464285Y-73022895D01*
X158464285Y-73022895D02*
X158464285Y-73118133D01*
X158464285Y-73118133D02*
X158416666Y-73213371D01*
X158416666Y-73213371D02*
X158369047Y-73260990D01*
X158369047Y-73260990D02*
X158273809Y-73308609D01*
X158273809Y-73308609D02*
X157940476Y-73308609D01*
X159369047Y-73165752D02*
X159369047Y-73832419D01*
X159130952Y-72784800D02*
X158892857Y-73499085D01*
X158892857Y-73499085D02*
X159511904Y-73499085D01*
X132385714Y-98813704D02*
X132347618Y-98851800D01*
X132347618Y-98851800D02*
X132233333Y-98889895D01*
X132233333Y-98889895D02*
X132157142Y-98889895D01*
X132157142Y-98889895D02*
X132042856Y-98851800D01*
X132042856Y-98851800D02*
X131966666Y-98775609D01*
X131966666Y-98775609D02*
X131928571Y-98699419D01*
X131928571Y-98699419D02*
X131890475Y-98547038D01*
X131890475Y-98547038D02*
X131890475Y-98432752D01*
X131890475Y-98432752D02*
X131928571Y-98280371D01*
X131928571Y-98280371D02*
X131966666Y-98204180D01*
X131966666Y-98204180D02*
X132042856Y-98127990D01*
X132042856Y-98127990D02*
X132157142Y-98089895D01*
X132157142Y-98089895D02*
X132233333Y-98089895D01*
X132233333Y-98089895D02*
X132347618Y-98127990D01*
X132347618Y-98127990D02*
X132385714Y-98166085D01*
X133147618Y-98889895D02*
X132690475Y-98889895D01*
X132919047Y-98889895D02*
X132919047Y-98089895D01*
X132919047Y-98089895D02*
X132842856Y-98204180D01*
X132842856Y-98204180D02*
X132766666Y-98280371D01*
X132766666Y-98280371D02*
X132690475Y-98318466D01*
X133604761Y-98432752D02*
X133528571Y-98394657D01*
X133528571Y-98394657D02*
X133490476Y-98356561D01*
X133490476Y-98356561D02*
X133452380Y-98280371D01*
X133452380Y-98280371D02*
X133452380Y-98242276D01*
X133452380Y-98242276D02*
X133490476Y-98166085D01*
X133490476Y-98166085D02*
X133528571Y-98127990D01*
X133528571Y-98127990D02*
X133604761Y-98089895D01*
X133604761Y-98089895D02*
X133757142Y-98089895D01*
X133757142Y-98089895D02*
X133833333Y-98127990D01*
X133833333Y-98127990D02*
X133871428Y-98166085D01*
X133871428Y-98166085D02*
X133909523Y-98242276D01*
X133909523Y-98242276D02*
X133909523Y-98280371D01*
X133909523Y-98280371D02*
X133871428Y-98356561D01*
X133871428Y-98356561D02*
X133833333Y-98394657D01*
X133833333Y-98394657D02*
X133757142Y-98432752D01*
X133757142Y-98432752D02*
X133604761Y-98432752D01*
X133604761Y-98432752D02*
X133528571Y-98470847D01*
X133528571Y-98470847D02*
X133490476Y-98508942D01*
X133490476Y-98508942D02*
X133452380Y-98585133D01*
X133452380Y-98585133D02*
X133452380Y-98737514D01*
X133452380Y-98737514D02*
X133490476Y-98813704D01*
X133490476Y-98813704D02*
X133528571Y-98851800D01*
X133528571Y-98851800D02*
X133604761Y-98889895D01*
X133604761Y-98889895D02*
X133757142Y-98889895D01*
X133757142Y-98889895D02*
X133833333Y-98851800D01*
X133833333Y-98851800D02*
X133871428Y-98813704D01*
X133871428Y-98813704D02*
X133909523Y-98737514D01*
X133909523Y-98737514D02*
X133909523Y-98585133D01*
X133909523Y-98585133D02*
X133871428Y-98508942D01*
X133871428Y-98508942D02*
X133833333Y-98470847D01*
X133833333Y-98470847D02*
X133757142Y-98432752D01*
X130985714Y-95813704D02*
X130947618Y-95851800D01*
X130947618Y-95851800D02*
X130833333Y-95889895D01*
X130833333Y-95889895D02*
X130757142Y-95889895D01*
X130757142Y-95889895D02*
X130642856Y-95851800D01*
X130642856Y-95851800D02*
X130566666Y-95775609D01*
X130566666Y-95775609D02*
X130528571Y-95699419D01*
X130528571Y-95699419D02*
X130490475Y-95547038D01*
X130490475Y-95547038D02*
X130490475Y-95432752D01*
X130490475Y-95432752D02*
X130528571Y-95280371D01*
X130528571Y-95280371D02*
X130566666Y-95204180D01*
X130566666Y-95204180D02*
X130642856Y-95127990D01*
X130642856Y-95127990D02*
X130757142Y-95089895D01*
X130757142Y-95089895D02*
X130833333Y-95089895D01*
X130833333Y-95089895D02*
X130947618Y-95127990D01*
X130947618Y-95127990D02*
X130985714Y-95166085D01*
X131290475Y-95166085D02*
X131328571Y-95127990D01*
X131328571Y-95127990D02*
X131404761Y-95089895D01*
X131404761Y-95089895D02*
X131595237Y-95089895D01*
X131595237Y-95089895D02*
X131671428Y-95127990D01*
X131671428Y-95127990D02*
X131709523Y-95166085D01*
X131709523Y-95166085D02*
X131747618Y-95242276D01*
X131747618Y-95242276D02*
X131747618Y-95318466D01*
X131747618Y-95318466D02*
X131709523Y-95432752D01*
X131709523Y-95432752D02*
X131252380Y-95889895D01*
X131252380Y-95889895D02*
X131747618Y-95889895D01*
X132509523Y-95889895D02*
X132052380Y-95889895D01*
X132280952Y-95889895D02*
X132280952Y-95089895D01*
X132280952Y-95089895D02*
X132204761Y-95204180D01*
X132204761Y-95204180D02*
X132128571Y-95280371D01*
X132128571Y-95280371D02*
X132052380Y-95318466D01*
X142684895Y-98139285D02*
X142303942Y-98405952D01*
X142684895Y-98596428D02*
X141884895Y-98596428D01*
X141884895Y-98596428D02*
X141884895Y-98291666D01*
X141884895Y-98291666D02*
X141922990Y-98215476D01*
X141922990Y-98215476D02*
X141961085Y-98177381D01*
X141961085Y-98177381D02*
X142037276Y-98139285D01*
X142037276Y-98139285D02*
X142151561Y-98139285D01*
X142151561Y-98139285D02*
X142227752Y-98177381D01*
X142227752Y-98177381D02*
X142265847Y-98215476D01*
X142265847Y-98215476D02*
X142303942Y-98291666D01*
X142303942Y-98291666D02*
X142303942Y-98596428D01*
X142684895Y-97377381D02*
X142684895Y-97834524D01*
X142684895Y-97605952D02*
X141884895Y-97605952D01*
X141884895Y-97605952D02*
X141999180Y-97682143D01*
X141999180Y-97682143D02*
X142075371Y-97758333D01*
X142075371Y-97758333D02*
X142113466Y-97834524D01*
X141884895Y-97110714D02*
X141884895Y-96577380D01*
X141884895Y-96577380D02*
X142684895Y-96920238D01*
D12*
%TO.C,C12*%
X144140580Y-84480000D02*
X143859420Y-84480000D01*
X144140580Y-85500000D02*
X143859420Y-85500000D01*
%TO.C,D1*%
X159015000Y-104640000D02*
X159015000Y-106110000D01*
X159015000Y-106110000D02*
X161300000Y-106110000D01*
X161300000Y-104640000D02*
X159015000Y-104640000D01*
%TO.C,R4*%
X116477500Y-95112258D02*
X116477500Y-94637742D01*
X117522500Y-95112258D02*
X117522500Y-94637742D01*
%TO.C,C16*%
X135359420Y-87415000D02*
X135640580Y-87415000D01*
X135359420Y-88435000D02*
X135640580Y-88435000D01*
%TO.C,C15*%
X134065580Y-78402500D02*
X133784420Y-78402500D01*
X134065580Y-79422500D02*
X133784420Y-79422500D01*
%TO.C,C8*%
X132109420Y-73345000D02*
X132390580Y-73345000D01*
X132109420Y-74365000D02*
X132390580Y-74365000D01*
%TO.C,R11*%
X123727500Y-94612742D02*
X123727500Y-95087258D01*
X124772500Y-94612742D02*
X124772500Y-95087258D01*
%TO.C,C11*%
X162990000Y-81090580D02*
X162990000Y-80809420D01*
X164010000Y-81090580D02*
X164010000Y-80809420D01*
%TO.C,R3*%
X133977500Y-97037258D02*
X133977500Y-96562742D01*
X135022500Y-97037258D02*
X135022500Y-96562742D01*
D13*
%TO.C,U2*%
X151225000Y-82795000D02*
X151225000Y-78895000D01*
X156275000Y-82795000D02*
X156275000Y-78895000D01*
D14*
X151545000Y-84885000D02*
G75*
G02*
X151345000Y-84885000I-100000J0D01*
G01*
X151345000Y-84885000D02*
G75*
G02*
X151545000Y-84885000I100000J0D01*
G01*
D12*
%TO.C,R2*%
X135727500Y-97037258D02*
X135727500Y-96562742D01*
X136772500Y-97037258D02*
X136772500Y-96562742D01*
%TO.C,Q1*%
X153210000Y-90575000D02*
X147530000Y-90575000D01*
X153210000Y-95945000D02*
X147090000Y-95945000D01*
X147018378Y-90839730D02*
X146778378Y-90509730D01*
X147258378Y-90509730D01*
X147018378Y-90839730D01*
G36*
X147018378Y-90839730D02*
G01*
X146778378Y-90509730D01*
X147258378Y-90509730D01*
X147018378Y-90839730D01*
G37*
%TO.C,R5*%
X135737258Y-85602500D02*
X135262742Y-85602500D01*
X135737258Y-86647500D02*
X135262742Y-86647500D01*
%TO.C,C5*%
X121990000Y-94990580D02*
X121990000Y-94709420D01*
X123010000Y-94990580D02*
X123010000Y-94709420D01*
%TO.C,C3*%
X158990000Y-81040580D02*
X158990000Y-80759420D01*
X160010000Y-81040580D02*
X160010000Y-80759420D01*
%TO.C,U5*%
X144000000Y-73430000D02*
X142050000Y-73430000D01*
X144000000Y-73430000D02*
X145950000Y-73430000D01*
X144000000Y-83550000D02*
X142050000Y-83550000D01*
X144000000Y-83550000D02*
X145950000Y-83550000D01*
X141275000Y-73485000D02*
X141035000Y-73155000D01*
X141515000Y-73155000D01*
X141275000Y-73485000D01*
G36*
X141275000Y-73485000D02*
G01*
X141035000Y-73155000D01*
X141515000Y-73155000D01*
X141275000Y-73485000D01*
G37*
%TO.C,C19*%
X125740000Y-94990580D02*
X125740000Y-94709420D01*
X126760000Y-94990580D02*
X126760000Y-94709420D01*
%TO.C,C20*%
X127740000Y-94990580D02*
X127740000Y-94709420D01*
X128760000Y-94990580D02*
X128760000Y-94709420D01*
%TO.C,C14*%
X164990000Y-81090580D02*
X164990000Y-80809420D01*
X166010000Y-81090580D02*
X166010000Y-80809420D01*
%TO.C,LS2*%
X160240000Y-74265000D02*
X162615000Y-74265000D01*
X160240000Y-76385000D02*
X160240000Y-74265000D01*
X160240000Y-76385000D02*
X160615000Y-76385000D01*
X160615000Y-76385000D02*
X160615000Y-77615000D01*
X161985000Y-76385000D02*
X164360000Y-76385000D01*
X163985000Y-74265000D02*
X164360000Y-74265000D01*
X164360000Y-76385000D02*
X164360000Y-74265000D01*
%TO.C,R13*%
X134977500Y-91062742D02*
X134977500Y-91537258D01*
X136022500Y-91062742D02*
X136022500Y-91537258D01*
%TO.C,J4*%
X140015000Y-110940000D02*
X140015000Y-110565000D01*
X140015000Y-112940000D02*
X140015000Y-110565000D01*
X140015000Y-116685000D02*
X140015000Y-114310000D01*
X142135000Y-110565000D02*
X140015000Y-110565000D01*
X142135000Y-114940000D02*
X142135000Y-112310000D01*
X142135000Y-116310000D02*
X143365000Y-116310000D01*
X142135000Y-116685000D02*
X140015000Y-116685000D01*
X142135000Y-116685000D02*
X142135000Y-116310000D01*
%TO.C,C22*%
X131740000Y-86209420D02*
X131740000Y-86490580D01*
X132760000Y-86209420D02*
X132760000Y-86490580D01*
%TO.C,C2*%
X161840000Y-112329437D02*
X161840000Y-118085000D01*
X161840000Y-118085000D02*
X164190000Y-118085000D01*
X162904437Y-111265000D02*
X161840000Y-112329437D01*
X162904437Y-111265000D02*
X164190000Y-111265000D01*
X167097500Y-110237500D02*
X167097500Y-111025000D01*
X167491250Y-110631250D02*
X166703750Y-110631250D01*
X167595563Y-111265000D02*
X166310000Y-111265000D01*
X167595563Y-111265000D02*
X168660000Y-112329437D01*
X168660000Y-112329437D02*
X168660000Y-118085000D01*
X168660000Y-118085000D02*
X166310000Y-118085000D01*
%TO.C,D3*%
X158590000Y-97825000D02*
X158590000Y-100110000D01*
X158590000Y-100110000D02*
X160060000Y-100110000D01*
X160060000Y-100110000D02*
X160060000Y-97825000D01*
%TO.C,C6*%
X118240000Y-95015580D02*
X118240000Y-94734420D01*
X119260000Y-95015580D02*
X119260000Y-94734420D01*
%TO.C,R1*%
X153477500Y-87362258D02*
X153477500Y-86887742D01*
X154522500Y-87362258D02*
X154522500Y-86887742D01*
%TO.C,J5*%
X146265000Y-111365000D02*
X146265000Y-113235000D01*
X146265000Y-117515000D02*
X146265000Y-119385000D01*
X147725000Y-111040000D02*
X147725000Y-109350000D01*
X148425000Y-113580000D02*
X148425000Y-117190000D01*
X154625000Y-108650000D02*
X154625000Y-109350000D01*
X154625000Y-109350000D02*
X147725000Y-109350000D01*
X157625000Y-108650000D02*
X154625000Y-108650000D01*
X157625000Y-108650000D02*
X157625000Y-111040000D01*
X157625000Y-113560000D02*
X157625000Y-117190000D01*
%TO.C,L1*%
X159240000Y-108287779D02*
X159240000Y-107962221D01*
X160260000Y-108287779D02*
X160260000Y-107962221D01*
%TO.C,LS1*%
X123940000Y-78490000D02*
X126315000Y-78490000D01*
X123940000Y-80610000D02*
X123940000Y-78490000D01*
X123940000Y-80610000D02*
X124315000Y-80610000D01*
X124315000Y-80610000D02*
X124315000Y-81840000D01*
X125685000Y-80610000D02*
X128060000Y-80610000D01*
X127685000Y-78490000D02*
X128060000Y-78490000D01*
X128060000Y-80610000D02*
X128060000Y-78490000D01*
%TO.C,C17*%
X160990000Y-81090580D02*
X160990000Y-80809420D01*
X162010000Y-81090580D02*
X162010000Y-80809420D01*
%TO.C,C26*%
X153109420Y-73365000D02*
X153390580Y-73365000D01*
X153109420Y-74385000D02*
X153390580Y-74385000D01*
%TO.C,R7*%
X148227500Y-83672258D02*
X148227500Y-83197742D01*
X149272500Y-83672258D02*
X149272500Y-83197742D01*
%TO.C,C1*%
X145100000Y-99615000D02*
X146350000Y-99615000D01*
X145725000Y-98990000D02*
X145725000Y-100240000D01*
X146590000Y-98079437D02*
X146590000Y-100865000D01*
X146590000Y-98079437D02*
X147654437Y-97015000D01*
X146590000Y-106670563D02*
X146590000Y-103885000D01*
X146590000Y-106670563D02*
X147654437Y-107735000D01*
X147654437Y-97015000D02*
X157310000Y-97015000D01*
X147654437Y-107735000D02*
X157310000Y-107735000D01*
X157310000Y-97015000D02*
X157310000Y-100865000D01*
X157310000Y-107735000D02*
X157310000Y-103885000D01*
%TO.C,R14*%
X133662742Y-82002500D02*
X134137258Y-82002500D01*
X133662742Y-83047500D02*
X134137258Y-83047500D01*
%TO.C,R8*%
X133687742Y-76640000D02*
X134162258Y-76640000D01*
X133687742Y-77685000D02*
X134162258Y-77685000D01*
%TO.C,J3*%
X161265000Y-98690000D02*
X163640000Y-98690000D01*
X161265000Y-100810000D02*
X161265000Y-98690000D01*
X161265000Y-100810000D02*
X161640000Y-100810000D01*
X161640000Y-100810000D02*
X161640000Y-102040000D01*
X163010000Y-100810000D02*
X165385000Y-100810000D01*
X165010000Y-98690000D02*
X165385000Y-98690000D01*
X165385000Y-100810000D02*
X165385000Y-98690000D01*
%TO.C,C7*%
X119990000Y-95015580D02*
X119990000Y-94734420D01*
X121010000Y-95015580D02*
X121010000Y-94734420D01*
%TO.C,R15*%
X132977500Y-91537258D02*
X132977500Y-91062742D01*
X134022500Y-91537258D02*
X134022500Y-91062742D01*
%TO.C,C13*%
X155390000Y-85015000D02*
X158240000Y-85015000D01*
X155390000Y-92670563D02*
X155390000Y-85015000D01*
X156454437Y-93735000D02*
X155390000Y-92670563D01*
X156454437Y-93735000D02*
X158240000Y-93735000D01*
X156740000Y-94475000D02*
X157740000Y-94475000D01*
X157240000Y-94975000D02*
X157240000Y-93975000D01*
X163045563Y-93735000D02*
X161260000Y-93735000D01*
X163045563Y-93735000D02*
X164110000Y-92670563D01*
X164110000Y-85015000D02*
X161260000Y-85015000D01*
X164110000Y-92670563D02*
X164110000Y-85015000D01*
%TO.C,C25*%
X135490000Y-74740580D02*
X135490000Y-74459420D01*
X136510000Y-74740580D02*
X136510000Y-74459420D01*
%TO.C,R16*%
X133662742Y-80390000D02*
X134137258Y-80390000D01*
X133662742Y-81435000D02*
X134137258Y-81435000D01*
%TO.C,C9*%
X158240000Y-77234420D02*
X158240000Y-77515580D01*
X159260000Y-77234420D02*
X159260000Y-77515580D01*
%TO.C,C18*%
X130640580Y-97365000D02*
X130359420Y-97365000D01*
X130640580Y-98385000D02*
X130359420Y-98385000D01*
%TO.C,C21*%
X132109420Y-93865000D02*
X132390580Y-93865000D01*
X132109420Y-94885000D02*
X132390580Y-94885000D01*
%TO.C,R17*%
X143227500Y-97862258D02*
X143227500Y-97387742D01*
X144272500Y-97862258D02*
X144272500Y-97387742D01*
%TD*%
M02*
