%TF.GenerationSoftware,KiCad,Pcbnew,8.0.1*%
%TF.CreationDate,2025-01-14T19:30:57+01:00*%
%TF.ProjectId,plant caretaker,706c616e-7420-4636-9172-6574616b6572,rev?*%
%TF.SameCoordinates,Original*%
%TF.FileFunction,Paste,Top*%
%TF.FilePolarity,Positive*%
%FSLAX46Y46*%
G04 Gerber Fmt 4.6, Leading zero omitted, Abs format (unit mm)*
G04 Created by KiCad (PCBNEW 8.0.1) date 2025-01-14 19:30:57*
%MOMM*%
%LPD*%
G01*
G04 APERTURE LIST*
G04 Aperture macros list*
%AMRoundRect*
0 Rectangle with rounded corners*
0 $1 Rounding radius*
0 $2 $3 $4 $5 $6 $7 $8 $9 X,Y pos of 4 corners*
0 Add a 4 corners polygon primitive as box body*
4,1,4,$2,$3,$4,$5,$6,$7,$8,$9,$2,$3,0*
0 Add four circle primitives for the rounded corners*
1,1,$1+$1,$2,$3*
1,1,$1+$1,$4,$5*
1,1,$1+$1,$6,$7*
1,1,$1+$1,$8,$9*
0 Add four rect primitives between the rounded corners*
20,1,$1+$1,$2,$3,$4,$5,0*
20,1,$1+$1,$4,$5,$6,$7,0*
20,1,$1+$1,$6,$7,$8,$9,0*
20,1,$1+$1,$8,$9,$2,$3,0*%
G04 Aperture macros list end*
%ADD10RoundRect,0.225000X0.225000X0.250000X-0.225000X0.250000X-0.225000X-0.250000X0.225000X-0.250000X0*%
%ADD11RoundRect,0.218750X-0.218750X-0.256250X0.218750X-0.256250X0.218750X0.256250X-0.218750X0.256250X0*%
%ADD12R,0.700000X0.700000*%
%ADD13RoundRect,0.200000X0.275000X-0.200000X0.275000X0.200000X-0.275000X0.200000X-0.275000X-0.200000X0*%
%ADD14RoundRect,0.225000X-0.225000X-0.250000X0.225000X-0.250000X0.225000X0.250000X-0.225000X0.250000X0*%
%ADD15RoundRect,0.200000X-0.275000X0.200000X-0.275000X-0.200000X0.275000X-0.200000X0.275000X0.200000X0*%
%ADD16RoundRect,0.225000X0.250000X-0.225000X0.250000X0.225000X-0.250000X0.225000X-0.250000X-0.225000X0*%
%ADD17RoundRect,0.075000X0.225000X-0.910000X0.225000X0.910000X-0.225000X0.910000X-0.225000X-0.910000X0*%
%ADD18RoundRect,0.375000X-0.375000X-0.375000X0.375000X-0.375000X0.375000X0.375000X-0.375000X0.375000X0*%
%ADD19RoundRect,0.125000X-0.250000X-0.125000X0.250000X-0.125000X0.250000X0.125000X-0.250000X0.125000X0*%
%ADD20RoundRect,0.100000X-0.275000X-0.100000X0.275000X-0.100000X0.275000X0.100000X-0.275000X0.100000X0*%
%ADD21RoundRect,0.200000X0.200000X0.275000X-0.200000X0.275000X-0.200000X-0.275000X0.200000X-0.275000X0*%
%ADD22RoundRect,0.150000X-0.850000X-0.150000X0.850000X-0.150000X0.850000X0.150000X-0.850000X0.150000X0*%
%ADD23R,0.850000X2.350000*%
%ADD24R,2.350000X0.850000*%
%ADD25RoundRect,0.225000X-0.250000X0.225000X-0.250000X-0.225000X0.250000X-0.225000X0.250000X0.225000X0*%
%ADD26RoundRect,0.250000X-0.550000X1.500000X-0.550000X-1.500000X0.550000X-1.500000X0.550000X1.500000X0*%
%ADD27RoundRect,0.218750X0.256250X-0.218750X0.256250X0.218750X-0.256250X0.218750X-0.256250X-0.218750X0*%
%ADD28RoundRect,0.250000X-0.750000X-0.750000X0.750000X-0.750000X0.750000X0.750000X-0.750000X0.750000X0*%
%ADD29RoundRect,0.200000X0.800000X0.600000X-0.800000X0.600000X-0.800000X-0.600000X0.800000X-0.600000X0*%
%ADD30RoundRect,0.250000X-1.950000X-1.000000X1.950000X-1.000000X1.950000X1.000000X-1.950000X1.000000X0*%
%ADD31RoundRect,0.200000X-0.200000X-0.275000X0.200000X-0.275000X0.200000X0.275000X-0.200000X0.275000X0*%
%ADD32RoundRect,0.250000X1.000000X-1.950000X1.000000X1.950000X-1.000000X1.950000X-1.000000X-1.950000X0*%
G04 APERTURE END LIST*
D10*
%TO.C,C12*%
X144775000Y-84990000D03*
X143225000Y-84990000D03*
%TD*%
D11*
%TO.C,D1*%
X159712500Y-105375000D03*
X161287500Y-105375000D03*
%TD*%
D12*
%TO.C,FB5*%
X138450000Y-76625000D03*
X137050000Y-76625000D03*
%TD*%
D13*
%TO.C,R4*%
X117000000Y-95700000D03*
X117000000Y-94050000D03*
%TD*%
D12*
%TO.C,FB2*%
X125050000Y-98125000D03*
X126450000Y-98125000D03*
%TD*%
%TO.C,FB6*%
X150450000Y-74125000D03*
X149050000Y-74125000D03*
%TD*%
D14*
%TO.C,C16*%
X134725000Y-87925000D03*
X136275000Y-87925000D03*
%TD*%
D10*
%TO.C,C15*%
X134700000Y-78912500D03*
X133150000Y-78912500D03*
%TD*%
D14*
%TO.C,C8*%
X131475000Y-73855000D03*
X133025000Y-73855000D03*
%TD*%
D15*
%TO.C,R11*%
X124250000Y-94025000D03*
X124250000Y-95675000D03*
%TD*%
D16*
%TO.C,C11*%
X163500000Y-81725000D03*
X163500000Y-80175000D03*
%TD*%
D13*
%TO.C,R3*%
X134500000Y-97625000D03*
X134500000Y-95975000D03*
%TD*%
D17*
%TO.C,U2*%
X151845000Y-83315000D03*
X153115000Y-83315000D03*
X154385000Y-83315000D03*
X155655000Y-83315000D03*
X155655000Y-78375000D03*
X154385000Y-78375000D03*
X153115000Y-78375000D03*
X151845000Y-78375000D03*
%TD*%
D13*
%TO.C,R2*%
X136250000Y-97625000D03*
X136250000Y-95975000D03*
%TD*%
D18*
%TO.C,Q1*%
X149950000Y-92410000D03*
X149950000Y-94110000D03*
X151650000Y-92410000D03*
X151650000Y-94110000D03*
D19*
X153055000Y-91355000D03*
X153055000Y-92625000D03*
X153055000Y-93895000D03*
X153055000Y-95165000D03*
D20*
X147250000Y-91355000D03*
X147250000Y-92625000D03*
X147250000Y-93895000D03*
X147250000Y-95165000D03*
%TD*%
D21*
%TO.C,R5*%
X136325000Y-86125000D03*
X134675000Y-86125000D03*
%TD*%
D16*
%TO.C,C5*%
X122500000Y-95625000D03*
X122500000Y-94075000D03*
%TD*%
%TO.C,C3*%
X159500000Y-81675000D03*
X159500000Y-80125000D03*
%TD*%
D22*
%TO.C,U5*%
X141500000Y-74045000D03*
X141500000Y-75315000D03*
X141500000Y-76585000D03*
X141500000Y-77855000D03*
X141500000Y-79125000D03*
X141500000Y-80395000D03*
X141500000Y-81665000D03*
X141500000Y-82935000D03*
X146500000Y-82935000D03*
X146500000Y-81665000D03*
X146500000Y-80395000D03*
X146500000Y-79125000D03*
X146500000Y-77855000D03*
X146500000Y-76585000D03*
X146500000Y-75315000D03*
X146500000Y-74045000D03*
%TD*%
D16*
%TO.C,C19*%
X126250000Y-95625000D03*
X126250000Y-94075000D03*
%TD*%
%TO.C,C20*%
X128250000Y-95625000D03*
X128250000Y-94075000D03*
%TD*%
%TO.C,C14*%
X165500000Y-81725000D03*
X165500000Y-80175000D03*
%TD*%
D23*
%TO.C,LS2*%
X161300000Y-76500000D03*
X163300000Y-74150000D03*
%TD*%
D15*
%TO.C,R13*%
X135500000Y-90475000D03*
X135500000Y-92125000D03*
%TD*%
D24*
%TO.C,J4*%
X142250000Y-115625000D03*
X139900000Y-113625000D03*
X142250000Y-111625000D03*
%TD*%
D25*
%TO.C,C22*%
X132250000Y-85575000D03*
X132250000Y-87125000D03*
%TD*%
D12*
%TO.C,FB3*%
X128700000Y-75375000D03*
X127300000Y-75375000D03*
%TD*%
D26*
%TO.C,C2*%
X165250000Y-111975000D03*
X165250000Y-117375000D03*
%TD*%
D27*
%TO.C,D3*%
X159325000Y-99412500D03*
X159325000Y-97837500D03*
%TD*%
D16*
%TO.C,C6*%
X118750000Y-95650000D03*
X118750000Y-94100000D03*
%TD*%
D13*
%TO.C,R1*%
X154000000Y-87950000D03*
X154000000Y-86300000D03*
%TD*%
D28*
%TO.C,J5*%
X147525000Y-112300000D03*
X147525000Y-118450000D03*
X158525000Y-118450000D03*
X158525000Y-112300000D03*
%TD*%
D12*
%TO.C,FB1*%
X128400000Y-87125000D03*
X127000000Y-87125000D03*
%TD*%
D27*
%TO.C,L1*%
X159750000Y-108912500D03*
X159750000Y-107337500D03*
%TD*%
D29*
%TO.C,U6*%
X133750000Y-120955000D03*
X133750000Y-118415000D03*
X133750000Y-115875000D03*
X133750000Y-113335000D03*
X133750000Y-110795000D03*
X133750000Y-108255000D03*
X133750000Y-105715000D03*
X133750000Y-103175000D03*
X133750000Y-100635000D03*
X118510000Y-100635000D03*
X118510000Y-103175000D03*
X118510000Y-105715000D03*
X118510000Y-108255000D03*
X118510000Y-110795000D03*
X118510000Y-113335000D03*
X118510000Y-115875000D03*
X118510000Y-118415000D03*
X118510000Y-120955000D03*
%TD*%
D23*
%TO.C,LS1*%
X125000000Y-80725000D03*
X127000000Y-78375000D03*
%TD*%
D16*
%TO.C,C17*%
X161500000Y-81725000D03*
X161500000Y-80175000D03*
%TD*%
D14*
%TO.C,C26*%
X152475000Y-73875000D03*
X154025000Y-73875000D03*
%TD*%
D13*
%TO.C,R7*%
X148750000Y-84260000D03*
X148750000Y-82610000D03*
%TD*%
D30*
%TO.C,C1*%
X147750000Y-102375000D03*
X156150000Y-102375000D03*
%TD*%
D31*
%TO.C,R14*%
X133075000Y-82525000D03*
X134725000Y-82525000D03*
%TD*%
%TO.C,R8*%
X133100000Y-77162500D03*
X134750000Y-77162500D03*
%TD*%
D23*
%TO.C,J3*%
X162325000Y-100925000D03*
X164325000Y-98575000D03*
%TD*%
D16*
%TO.C,C7*%
X120500000Y-95650000D03*
X120500000Y-94100000D03*
%TD*%
D13*
%TO.C,R15*%
X133500000Y-92125000D03*
X133500000Y-90475000D03*
%TD*%
D32*
%TO.C,C13*%
X159750000Y-93075000D03*
X159750000Y-85675000D03*
%TD*%
D16*
%TO.C,C25*%
X136000000Y-75375000D03*
X136000000Y-73825000D03*
%TD*%
D31*
%TO.C,R16*%
X133075000Y-80912500D03*
X134725000Y-80912500D03*
%TD*%
D25*
%TO.C,C9*%
X158750000Y-76600000D03*
X158750000Y-78150000D03*
%TD*%
D12*
%TO.C,FB4*%
X156300000Y-75125000D03*
X157700000Y-75125000D03*
%TD*%
D10*
%TO.C,C18*%
X131275000Y-97875000D03*
X129725000Y-97875000D03*
%TD*%
D14*
%TO.C,C21*%
X131475000Y-94375000D03*
X133025000Y-94375000D03*
%TD*%
D13*
%TO.C,R17*%
X143750000Y-98450000D03*
X143750000Y-96800000D03*
%TD*%
M02*
